<?xml version="1.0" encoding="UTF-8" standalone="no"?>
<!DOCTYPE svg PUBLIC "-//W3C//DTD SVG 1.1//EN" "http://www.w3.org/Graphics/SVG/1.1/DTD/svg11.dtd">
<svg width="100%" height="100%" viewBox="0 0 775 138" version="1.1" xmlns="http://www.w3.org/2000/svg" xmlns:xlink="http://www.w3.org/1999/xlink" xml:space="preserve" xmlns:serif="http://www.serif.com/" style="fill-rule:evenodd;clip-rule:evenodd;stroke-linejoin:round;stroke-miterlimit:2;">
    <g transform="matrix(1,0,0,0.9764,-760.501,0.406846)">
        <rect id="ArtBoard1" x="760.501" y="-0.417" width="774.854" height="140.762" style="fill:none;"/>
        <clipPath id="_clip1">
            <rect id="ArtBoard11" serif:id="ArtBoard1" x="760.501" y="-0.417" width="774.854" height="140.762"/>
        </clipPath>
        <g clip-path="url(#_clip1)">
            <g transform="matrix(0.0999865,-1.69109e-21,1.65118e-21,-0.102417,0.500879,139.565)">
                <path d="M0,1390L0,112L48,113C125,114 160,110 160,103C160,98 151,84 141,71C124,49 121,48 101,62C87,72 68,75 43,71C9,65 5,61 2,32L-1,0L1008,0C2011,1 2017,1 2071,22C2147,52 2281,89 2274,79C2272,74 2229,59 2180,44C2130,29 2090,14 2090,11C2090,8 2203,4 2341,3C2572,0 2591,1 2588,17C2586,27 2572,37 2553,41C2536,44 2510,57 2495,69C2480,80 2462,90 2455,90C2448,90 2423,98 2400,109C2359,127 2359,128 2385,134C2414,141 2422,140 2523,107C2560,95 2590,80 2590,73C2590,60 2606,57 2676,60C2732,62 2793,45 2815,20C2833,0 2844,0 5064,0C6508,0 7290,4 7280,10C7272,15 7254,20 7240,20C7213,20 7145,42 7134,53C7124,63 7195,61 7248,51C7272,46 7305,33 7321,21C7349,1 7358,0 7719,0C8005,0 8090,3 8094,13C8099,22 8101,22 8106,13C8110,3 8792,0 11426,0C13639,0 14739,3 14735,10C14732,15 14720,20 14709,20C14698,20 14675,27 14657,36C14640,45 14594,61 14555,70L14485,88L14534,89C14588,90 14700,63 14700,48C14700,44 14711,35 14725,30C14739,25 14750,16 14750,10C14750,5 14757,0 14766,0C14774,0 14779,4 14775,10C14768,21 14818,56 14827,46C14831,43 14828,34 14822,28C14815,21 14810,12 14810,8C14810,4 14969,0 15163,0C15494,1 15513,2 15485,17C15469,26 15460,35 15466,37C15482,42 15530,22 15530,10C15530,4 15563,0 15614,0C15686,0 15699,3 15703,18C15707,34 15708,34 15709,18C15710,1 15732,0 16015,0C16313,0 16320,0 16320,20C16320,31 16325,40 16330,40C16336,40 16340,31 16340,20C16340,1 16347,0 16451,0C16551,0 16561,2 16557,18C16554,27 16549,52 16545,73C16540,103 16542,110 16555,110C16573,110 16590,71 16590,29L16590,0L17480,0C18264,0 18370,2 18370,15C18370,23 18375,30 18380,30C18386,30 18390,23 18390,15C18390,2 18431,0 18693,0C18981,1 18997,2 19013,20C19022,31 19037,40 19045,40C19054,40 19058,45 19055,51C19047,63 19168,53 19185,40C19198,30 19260,22 19260,30C19260,33 19255,41 19249,47C19240,56 19247,59 19278,58C19300,58 19323,61 19329,64C19336,69 19340,59 19340,36L19340,0L19458,1C19549,1 19570,4 19553,12C19540,18 19530,27 19530,31C19530,43 19632,29 19657,14C19688,-6 22546,-7 22553,13C22557,23 22559,23 22559,13C22560,3 22589,0 22670,0C22763,0 22779,2 22774,15C22770,24 22774,30 22782,30C22790,30 22810,37 22827,45C22872,68 22904,68 22908,46C22910,36 22908,30 22902,34C22887,43 22860,30 22860,14C22860,4 22873,0 22905,0C22944,0 22950,3 22950,21C22950,32 22946,49 22941,58C22937,67 22930,89 22926,105C22920,133 22921,134 22935,116C22948,98 22950,163 22950,743L22950,1390L22100,1390C21288,1390 21250,1389 21250,1372C21250,1362 21255,1349 21262,1342C21271,1333 21266,1330 21237,1330C21203,1330 21200,1332 21200,1360L21200,1390L21118,1389C21072,1389 21041,1386 21048,1383C21068,1375 21051,1360 21021,1360C21005,1360 20987,1367 20980,1375C20969,1388 20478,1390 16673,1390L12378,1390L12384,1358C12390,1330 12389,1328 12377,1343C12365,1360 12363,1360 12336,1335C12305,1307 12305,1310 12334,1185C12343,1147 12350,1086 12350,1050C12350,1014 12357,922 12364,845C12377,711 12375,674 12353,702C12348,709 12315,777 12280,852C12244,927 12214,988 12213,986C12212,985 12226,940 12246,886C12265,832 12279,785 12276,783C12270,776 12229,858 12219,895C12215,912 12205,947 12197,973C12185,1009 12185,1018 12194,1010C12204,1002 12206,1006 12202,1027C12194,1076 12225,1034 12280,921C12308,864 12332,819 12334,821C12340,827 12312,1070 12301,1110C12293,1142 12292,1143 12291,1118C12290,1081 12270,1082 12270,1119C12270,1158 12280,1181 12292,1174C12308,1164 12292,1263 12276,1274C12266,1281 12275,1296 12311,1334L12359,1385L12152,1388C12039,1389 11939,1388 11932,1385C11923,1382 11920,1372 11923,1358C11929,1338 11927,1338 11904,1363C11875,1394 11849,1398 11835,1372C11801,1309 11760,1215 11760,1198C11760,1187 11753,1171 11744,1163C11730,1149 11729,1123 11734,956C11742,720 11744,709 11778,679C11798,661 11800,660 11787,676C11761,707 11767,713 11800,689C11816,677 11827,663 11824,659C11822,655 11829,648 11840,645C11858,639 11882,641 11970,655C12001,659 12003,674 11997,854C11991,1017 11996,1077 12015,1059C12018,1056 12023,968 12027,863L12033,674L12002,639C11974,607 11968,605 11911,607C11869,608 11835,615 11803,632C11727,669 11722,683 11712,865C11707,953 11694,1061 11684,1105C11668,1177 11668,1192 11680,1235C11688,1263 11712,1307 11737,1337L11780,1390L11672,1390L11666,1348C11662,1324 11657,1254 11654,1192C11649,1103 11651,1075 11662,1057C11670,1045 11680,1012 11684,983C11696,891 11651,827 11565,814L11521,808L11518,731L11515,655L11471,652C11443,650 11424,653 11419,662C11414,669 11410,756 11410,855L11410,1034L11447,1125C11467,1174 11492,1225 11502,1236C11516,1252 11559,1365 11560,1388C11560,1389 11524,1390 11480,1390L11399,1390L11421,1361C11454,1316 11445,1215 11397,1103C11376,1055 11370,1024 11370,969C11370,915 11365,889 11349,860L11327,822L11360,752C11401,663 11396,648 11333,652L11285,655L11247,732C11219,791 11205,810 11190,810C11172,810 11170,803 11170,735C11170,672 11167,659 11151,650C11124,636 11073,637 11067,653C11055,685 11088,1203 11105,1249C11108,1256 11106,1268 11100,1275C11092,1284 11094,1289 11105,1294C11113,1297 11120,1306 11120,1315C11120,1332 11089,1335 11074,1320C11069,1315 11055,1313 11044,1316C11028,1320 11024,1327 11028,1346C11032,1368 11029,1370 10996,1370C10923,1370 10815,1302 10753,1217C10723,1175 10715,1155 10714,1115C10713,1088 10707,1052 10701,1037C10695,1021 10690,995 10690,979C10690,917 10624,854 10568,862C10545,865 10545,865 10548,995L10551,1125L10523,1098C10495,1071 10494,1068 10482,898C10455,527 10455,526 10472,533C10481,536 10507,544 10529,551C10556,559 10566,566 10558,571C10550,576 10554,582 10574,589C10589,595 10610,605 10621,610C10634,618 10640,617 10640,610C10640,604 10626,594 10609,588C10593,582 10581,576 10583,574C10585,572 10608,577 10634,586C10701,609 10720,643 10720,739C10720,801 10716,817 10699,836L10678,858L10704,903C10722,933 10730,961 10730,993C10730,1029 10735,1042 10752,1054C10763,1062 10785,1100 10800,1138C10830,1215 10867,1280 10880,1280C10885,1280 10880,1261 10870,1237C10847,1184 10830,1114 10839,1103C10843,1099 10844,1059 10841,1015C10838,954 10835,943 10830,970C10827,990 10821,925 10816,822C10812,721 10810,636 10813,633C10816,631 10840,632 10867,636C10903,641 10910,645 10895,650C10879,656 10883,659 10915,665C10937,669 10963,674 10974,677C10987,681 10990,678 10985,670C10980,662 10982,659 10990,662C10998,664 11006,672 11008,678C11011,687 10994,690 10943,688L10875,685L10872,745C10870,778 10871,824 10875,848L10881,890L10938,892L10995,893L10885,905L10885,984C10885,1034 10889,1065 10896,1067C10904,1070 10906,1050 10902,1001L10897,931L10956,928C11011,925 11015,923 11018,898C11022,864 10989,840 10938,840L10900,840L10899,790C10898,763 10897,734 10896,728C10895,719 10914,715 10959,715C11016,715 11023,713 11031,692C11047,649 11028,634 10931,616C10824,597 10794,596 10787,612C10785,619 10787,721 10791,839C10796,957 10798,1055 10795,1058C10782,1071 10762,1034 10757,986C10754,956 10744,917 10735,899C10719,869 10719,865 10734,839C10755,803 10755,693 10734,640C10715,592 10681,570 10575,536C10484,507 10445,504 10437,524C10434,532 10435,603 10440,682C10462,1009 10463,1060 10452,1060C10435,1060 10418,1021 10366,870C10324,746 10320,723 10312,594C10307,516 10299,447 10295,440C10291,434 10272,422 10253,414C10235,406 10222,395 10225,390C10236,372 10214,379 10196,399C10181,416 10180,431 10191,573C10203,742 10202,747 10144,950C10117,1043 10116,1050 10128,1050C10144,1050 10173,965 10220,781C10229,748 10229,701 10219,593C10212,514 10209,447 10213,444C10216,441 10231,444 10247,452C10275,465 10275,466 10288,614C10300,748 10306,777 10350,901C10387,1009 10405,1046 10433,1073C10467,1108 10486,1165 10467,1177C10462,1180 10445,1173 10429,1161C10413,1149 10400,1144 10400,1149C10400,1154 10404,1162 10410,1165C10415,1168 10427,1186 10436,1205C10445,1224 10460,1242 10470,1245C10492,1252 10525,1288 10517,1297C10513,1300 10478,1281 10439,1254C10289,1151 10268,1139 10256,1156C10247,1168 10239,1169 10217,1161C10188,1150 10189,1130 10218,1130C10232,1129 10231,1126 10211,1110C10185,1087 10166,1093 10173,1121C10176,1131 10174,1143 10169,1146C10164,1149 10160,1160 10160,1171C10160,1182 10164,1189 10169,1185C10174,1182 10181,1184 10185,1190C10188,1195 10201,1200 10214,1200C10226,1200 10245,1208 10256,1218C10286,1245 10405,1320 10418,1320C10425,1320 10430,1325 10430,1332C10430,1338 10433,1340 10436,1337C10440,1333 10437,1323 10429,1314C10416,1298 10417,1297 10440,1304C10454,1309 10485,1315 10510,1319C10549,1324 10552,1327 10536,1336C10520,1346 10526,1348 10572,1354C10602,1358 10646,1367 10671,1375C10711,1388 10697,1389 10491,1389L10267,1390L10274,1320C10279,1261 10278,1251 10265,1256C10255,1260 10250,1276 10250,1304C10250,1370 10241,1390 10212,1390L10187,1390L10192,1300C10195,1250 10194,1213 10189,1216C10184,1219 10180,1228 10180,1237C10180,1268 10156,1320 10142,1320C10133,1320 10129,1330 10132,1353L10135,1385L10023,1388C9900,1391 9899,1390 9920,1334C9936,1294 9923,1292 9890,1329C9855,1366 9853,1377 9878,1383C9887,1386 7909,1388 5482,1389L1068,1390L1049,1368L1031,1345L1030,1368L1030,1390L0,1390ZM12969,1351L13001,1323L12961,1244C12925,1172 12922,1168 12918,1195C12916,1212 12919,1238 12925,1253C12934,1278 12932,1285 12908,1305C12884,1326 12882,1331 12893,1354C12909,1387 12929,1387 12969,1351ZM9837,1354C9834,1351 9825,1350 9818,1353C9810,1356 9813,1359 9824,1359C9835,1360 9841,1357 9837,1354ZM13258,1353C13248,1351 13240,1345 13240,1340C13240,1335 13214,1314 13183,1294C13151,1274 13095,1228 13057,1192C12999,1136 12991,1131 13000,1156C13006,1172 13024,1199 13040,1217C13057,1235 13070,1256 13070,1266C13070,1277 13075,1280 13086,1276C13096,1272 13116,1280 13136,1295C13154,1309 13173,1320 13178,1320C13183,1320 13195,1329 13205,1340C13215,1351 13235,1359 13249,1359C13266,1358 13269,1356 13258,1353ZM9703,1331C9739,1317 9738,1299 9701,1306C9681,1310 9671,1308 9667,1296C9657,1271 9631,1277 9590,1314L9553,1348L9614,1345C9647,1343 9687,1337 9703,1331ZM1020,1326C1020,1310 1002,1295 993,1304C985,1312 998,1340 1010,1340C1015,1340 1020,1334 1020,1326ZM12014,1300C12024,1300 12027,1306 12023,1318C12017,1333 12018,1333 12033,1321C12042,1314 12050,1301 12050,1293C12050,1285 12060,1265 12071,1248C12086,1227 12096,1222 12103,1229C12123,1249 12132,1240 12126,1208C12123,1190 12119,1164 12117,1150C12116,1132 12108,1124 12092,1122C12074,1119 12070,1114 12076,1102C12085,1079 12087,1059 12101,818C12110,653 12116,610 12127,610C12134,610 12143,603 12146,595C12150,587 12157,580 12162,580C12173,580 12167,725 12151,875C12143,946 12145,970 12161,970C12170,970 12241,826 12326,636C12380,514 12384,508 12433,496C12462,489 12462,490 12456,527C12453,548 12441,670 12430,799C12414,987 12406,1039 12391,1064C12377,1087 12371,1118 12369,1182C12367,1230 12369,1272 12373,1276C12377,1280 12380,1278 12380,1272C12380,1266 12391,1245 12404,1226C12423,1197 12429,1173 12434,1093C12438,1039 12452,876 12466,731C12484,545 12489,465 12481,457C12468,444 12401,462 12371,488C12360,497 12317,582 12275,675C12233,769 12194,850 12188,855C12181,862 12180,846 12184,805C12206,564 12205,550 12159,550C12114,550 12091,566 12086,603C12083,620 12076,734 12070,855C12063,986 12052,1097 12043,1130C12023,1204 11994,1274 11982,1278C11971,1281 11880,1150 11880,1131C11880,1125 11887,1120 11895,1120C11927,1120 11937,1069 11942,888C11947,697 11942,670 11898,670C11873,670 11823,699 11814,719C11803,743 11782,1054 11791,1060C11795,1063 11807,1086 11818,1110C11846,1174 11894,1248 11942,1298C11981,1339 11984,1341 11992,1321C11996,1309 12006,1300 12014,1300ZM12567,1293C12564,1283 12562,1291 12562,1310C12562,1329 12564,1337 12567,1328C12569,1318 12569,1302 12567,1293ZM11473,1257C11470,1236 11463,1223 11459,1227C11454,1232 11453,1253 11457,1273C11460,1294 11467,1307 11471,1303C11476,1298 11477,1277 11473,1257ZM11900,1295C11893,1286 11885,1282 11883,1284C11876,1291 11890,1310 11902,1310C11908,1310 11908,1304 11900,1295ZM13327,1295C13335,1273 13321,1262 13310,1280C13297,1300 13298,1310 13310,1310C13316,1310 13323,1303 13327,1295ZM13045,1280C13025,1257 13016,1259 13026,1284C13029,1293 13039,1300 13048,1300C13061,1300 13060,1297 13045,1280ZM370,1280C370,1275 363,1270 354,1270C346,1270 342,1275 345,1280C348,1286 355,1290 361,1290C366,1290 370,1286 370,1280ZM10980,1274C10980,1261 10986,1259 11007,1265C11031,1271 11032,1270 11020,1253C11012,1243 10987,1216 10963,1194C10938,1169 10917,1139 10914,1121C10905,1079 10890,1071 10890,1109C10890,1125 10884,1140 10878,1143C10868,1147 10868,1150 10878,1161C10884,1168 10890,1183 10890,1195C10890,1215 10954,1290 10971,1290C10976,1290 10980,1283 10980,1274ZM11848,1266C11838,1259 11830,1248 11830,1241C11830,1235 11826,1230 11820,1230C11815,1230 11810,1235 11810,1241C11810,1254 11840,1279 11855,1279C11861,1279 11857,1273 11848,1266ZM10157,1218C10155,1205 10153,1213 10153,1235C10152,1257 10154,1267 10157,1258C10159,1248 10159,1230 10157,1218ZM12120,1260C12120,1255 12116,1250 12111,1250C12105,1250 12098,1255 12095,1260C12092,1266 12096,1270 12104,1270C12113,1270 12120,1266 12120,1260ZM18598,1258C18595,1251 18583,1243 18570,1242C18549,1239 18548,1240 18559,1254C18575,1273 18603,1275 18598,1258ZM540,1250C540,1245 531,1240 519,1240C508,1240 502,1245 505,1250C508,1256 518,1260 526,1260C534,1260 540,1256 540,1250ZM10013,1155C10027,1128 10050,1094 10064,1081C10097,1050 10101,986 10071,970C10035,951 10000,958 9990,985C9979,1015 9950,1018 9925,990C9907,970 9904,949 9866,555C9845,341 9845,320 9869,320C9897,320 9938,367 9942,403C9945,430 9952,437 9993,454C10059,482 10067,472 10051,378C10045,339 10030,291 10018,272C9992,229 9929,183 9877,169L9838,159L9845,95L9851,31L9821,32C9804,33 9783,41 9773,52C9757,69 9758,72 9788,101C9806,118 9820,140 9820,149C9820,159 9834,171 9853,178C9911,199 9975,248 9998,288C10018,324 10040,440 10027,440C10001,440 9970,414 9970,392C9970,359 9901,290 9867,290C9816,290 9815,298 9844,603C9879,963 9883,989 9915,1018C9949,1047 9984,1046 10008,1015C10035,980 10060,982 10060,1019C10060,1040 10051,1053 10026,1071C9992,1094 9977,1126 9965,1201C9959,1241 9971,1263 9981,1228C9984,1215 9998,1183 10013,1155ZM12244,1197C12244,1169 12242,1123 12241,1095C12238,1046 12238,1046 12230,1079C12218,1129 12228,1250 12243,1250C12244,1250 12245,1226 12244,1197ZM12611,1119C12621,1051 12636,901 12645,785C12661,576 12683,400 12695,380C12698,375 12713,370 12727,370C12752,370 12752,372 12747,413C12744,436 12738,508 12734,572C12728,672 12730,693 12744,715C12753,729 12765,740 12770,740C12775,740 12791,701 12806,653C12904,325 12941,220 12965,204C12978,195 12993,191 12999,194C13004,197 13010,193 13014,185C13017,177 13024,170 13029,170C13034,170 12989,317 12929,497C12869,676 12820,829 12820,837C12820,863 12891,1018 12911,1036C12921,1045 12930,1050 12930,1047C12930,1043 12911,995 12888,939L12846,837L12961,496C13024,308 13080,147 13084,138C13091,122 13087,120 13053,120C13023,120 13007,127 12989,146C12976,160 12953,178 12938,186C12922,194 12910,206 12910,213C12910,221 12877,233 12820,244C12714,266 12554,262 12455,235C12386,216 12290,162 12290,142C12290,133 12283,131 12270,134C12203,153 12205,149 12247,186C12330,262 12480,310 12638,311C12710,311 12722,313 12706,323C12695,330 12676,345 12664,356C12652,368 12631,380 12617,384C12555,399 12551,410 12530,620C12519,727 12505,903 12500,1010C12491,1207 12493,1219 12526,1220C12544,1220 12552,1139 12539,1079C12526,1019 12530,921 12557,637C12575,448 12583,419 12616,440C12630,449 12635,461 12633,488C12622,638 12579,1155 12574,1199C12570,1240 12571,1251 12581,1248C12590,1245 12600,1200 12611,1119ZM13295,1191C13277,1156 13260,1150 13260,1179C13260,1190 13255,1202 13250,1205C13244,1209 13242,1216 13246,1221C13249,1226 13256,1228 13261,1225C13266,1221 13278,1223 13287,1229C13311,1242 13314,1228 13295,1191ZM370,1205C370,1197 363,1190 354,1190C340,1190 340,1193 350,1205C357,1213 364,1220 366,1220C368,1220 370,1213 370,1205ZM9840,1211C9840,1205 9836,1198 9830,1195C9825,1192 9820,1196 9820,1204C9820,1213 9825,1220 9830,1220C9836,1220 9840,1216 9840,1211ZM11791,1151C11785,1131 11776,1099 11770,1080C11762,1052 11761,1060 11766,1120C11772,1194 11791,1244 11799,1205C11801,1195 11797,1171 11791,1151ZM12158,1114C12162,1026 12142,1038 12135,1129C12132,1175 12134,1190 12143,1187C12150,1185 12156,1157 12158,1114ZM12200,1176C12200,1168 12203,1153 12206,1143C12209,1133 12204,1136 12196,1150C12178,1180 12176,1190 12190,1190C12196,1190 12200,1184 12200,1176ZM12666,1133C12675,1101 12689,1065 12698,1052C12706,1040 12715,1001 12718,965C12720,929 12726,900 12729,900C12740,900 12790,1045 12790,1078C12790,1095 12795,1112 12800,1115C12806,1118 12810,1112 12810,1101C12810,1091 12815,1080 12821,1078C12828,1076 12813,1025 12780,942C12750,866 12723,811 12716,813C12710,815 12700,864 12694,928C12687,1001 12677,1046 12668,1058C12653,1074 12633,1190 12644,1190C12647,1190 12657,1164 12666,1133ZM13259,1133C13258,1117 13224,1066 13213,1063C13205,1060 13207,1073 13218,1099C13227,1122 13241,1140 13248,1140C13254,1140 13260,1137 13259,1133ZM22430,1126C22430,1120 22348,1068 22344,1073C22342,1075 22357,1089 22377,1103C22412,1128 22430,1136 22430,1126ZM9931,1087C9921,1078 9920,1079 9926,1093C9929,1103 9935,1108 9938,1105C9941,1102 9938,1094 9931,1087ZM13143,1081C13146,1070 13145,1059 13142,1056C13133,1046 13100,1049 13100,1060C13100,1066 13105,1070 13110,1070C13116,1070 13120,1077 13120,1085C13120,1107 13137,1103 13143,1081ZM10267,1068C10264,1060 10261,1063 10261,1074C10260,1085 10263,1091 10266,1087C10269,1084 10270,1075 10267,1068ZM38,1062C40,1055 35,1050 26,1050C17,1050 10,1057 10,1066C10,1083 32,1080 38,1062ZM10250,985C10257,955 10266,930 10270,930C10274,930 10283,950 10290,975C10298,1005 10313,1028 10331,1041C10366,1066 10367,1062 10336,1002C10323,976 10312,937 10312,916C10311,879 10277,829 10263,844C10254,853 10203,1049 10208,1055C10220,1066 10238,1037 10250,985ZM9822,1008C9807,958 9803,929 9770,622C9732,264 9732,222 9766,181C9789,154 9790,150 9773,150C9741,150 9710,210 9710,272C9710,328 9775,933 9786,980C9793,1010 9820,1054 9827,1047C9830,1044 9827,1026 9822,1008ZM19100,1030C19100,1025 19098,1020 19096,1020C19093,1020 19088,1025 19085,1030C19082,1036 19084,1040 19089,1040C19095,1040 19100,1036 19100,1030ZM21825,1020C21828,1015 21824,1010 21815,1010C21806,1010 21802,1015 21805,1020C21808,1026 21813,1030 21815,1030C21817,1030 21822,1026 21825,1020ZM13156,993C13159,977 13165,954 13169,940C13178,912 13165,874 13144,866C13120,857 13090,896 13090,938C13090,1006 13143,1050 13156,993ZM13231,987C13221,978 13220,979 13226,993C13229,1003 13235,1008 13238,1005C13241,1002 13238,994 13231,987ZM1410,971C1410,954 1406,939 1401,936C1389,928 1378,959 1385,981C1395,1010 1410,1003 1410,971ZM22050,979C22050,974 22046,970 22040,970C22035,970 22030,977 22030,986C22030,994 22035,998 22040,995C22046,992 22050,985 22050,979ZM21610,859C21610,845 21590,849 21590,863C21590,869 21581,886 21570,900C21559,914 21550,929 21550,934C21550,939 21564,926 21580,905C21597,884 21610,863 21610,859ZM13457,924C13454,921 13445,920 13438,923C13430,926 13433,929 13444,929C13455,930 13461,927 13457,924ZM1865,843C1862,825 1855,812 1849,815C1836,823 1838,863 1852,897C1863,925 1864,925 1868,901C1870,888 1869,862 1865,843ZM13410,910C13402,905 13388,901 13380,901C13370,901 13372,904 13385,910C13412,922 13428,922 13410,910ZM22155,900C22158,889 22154,870 22144,855C22131,835 22125,832 22114,841C22087,863 22103,920 22136,920C22143,920 22151,911 22155,900ZM13199,873C13192,863 13177,848 13167,839C13153,828 13149,813 13152,780L13155,736L13183,779C13199,803 13214,819 13217,816C13221,813 13214,800 13204,787C13166,745 13150,711 13150,672C13150,646 13143,627 13131,616C13112,599 13111,599 13099,622C13091,636 13087,679 13088,739C13090,837 13097,855 13134,846C13144,843 13163,852 13179,866C13209,894 13218,897 13199,873ZM1370,870C1370,865 1366,860 1360,860C1355,860 1350,865 1350,870C1350,876 1355,880 1360,880C1366,880 1370,876 1370,870ZM8987,843C8984,833 8982,839 8982,855C8982,872 8984,879 8987,873C8989,866 8989,852 8987,843ZM11757,838C11754,831 11752,836 11752,850C11752,864 11754,869 11757,863C11759,856 11759,844 11757,838ZM10650,850C10650,845 10645,840 10638,840C10632,840 10637,830 10649,818C10670,799 10672,791 10667,732C10663,678 10657,663 10633,638C10616,621 10589,607 10566,603L10528,597L10533,701C10539,845 10539,844 10591,851C10615,854 10638,858 10643,858C10647,859 10650,856 10650,850ZM21850,840C21850,835 21846,830 21840,830C21835,830 21830,835 21830,840C21830,846 21835,850 21840,850C21846,850 21850,846 21850,840ZM21673,793C21677,786 21690,780 21701,780C21723,780 21725,750 21704,743C21687,737 21620,804 21620,825C21620,842 21621,842 21643,824C21655,814 21669,799 21673,793ZM11757,788C11754,781 11752,786 11752,800C11752,814 11754,819 11757,813C11759,806 11759,794 11757,788ZM21880,810C21880,805 21876,800 21870,800C21865,800 21860,805 21860,810C21860,816 21865,820 21870,820C21876,820 21880,816 21880,810ZM15531,750C15536,750 15540,746 15540,740C15540,735 15529,730 15515,730C15499,730 15490,736 15490,746C15490,757 15495,760 15506,756C15515,753 15526,750 15531,750ZM5403,735C5400,726 5395,721 5393,724C5390,727 5391,733 5395,739C5404,755 5410,752 5403,735ZM8185,720C8182,715 8192,712 8207,713C8229,715 8236,710 8238,694C8242,666 8207,657 8159,673C8127,684 8124,688 8133,707C8142,728 8167,741 8183,733C8187,730 8188,725 8185,720ZM8271,713C8284,697 8283,696 8268,709C8258,716 8250,724 8250,726C8250,734 8258,729 8271,713ZM13201,697C13188,685 13181,682 13185,690C13199,716 13213,731 13218,725C13221,722 13213,709 13201,697ZM21926,668C21934,655 21887,610 21864,610C21845,610 21846,639 21867,662C21885,682 21915,686 21926,668ZM966,623C956,613 947,628 956,641C962,652 964,652 968,641C970,634 969,626 966,623ZM14014,632C14016,628 14010,623 13999,623C13989,622 13980,625 13980,631C13980,642 14007,643 14014,632ZM1030,620C1030,615 1028,610 1026,610C1023,610 1018,615 1015,620C1012,626 1014,630 1019,630C1025,630 1030,626 1030,620ZM4701,587C4689,557 4656,548 4667,578C4676,602 4704,633 4708,622C4709,617 4706,601 4701,587ZM4741,587C4733,579 4730,580 4730,591C4730,611 4743,625 4748,610C4751,603 4747,593 4741,587ZM22700,525C22699,509 22660,563 22660,580C22660,588 22669,582 22680,565C22691,549 22700,531 22700,525ZM11285,539L11304,519L11321,541C11343,570 11360,557 11360,512C11360,466 11344,437 11334,463C11329,476 11324,478 11315,470C11306,462 11300,462 11295,470C11286,485 11270,482 11270,465C11270,457 11266,450 11260,450C11255,450 11250,475 11250,505C11250,565 11257,571 11285,539ZM11589,546C11596,538 11600,515 11598,494C11592,421 11530,426 11530,499C11530,553 11562,578 11589,546ZM11060,529C11060,524 11051,520 11040,520C11029,520 11020,516 11020,510C11020,505 11025,500 11030,500C11036,500 11040,493 11040,485C11040,477 11036,470 11030,470C11025,470 11020,466 11020,460C11020,455 11029,450 11040,450C11051,450 11060,445 11060,439C11060,433 11046,430 11028,432C10996,435 10995,436 10995,485C10995,529 10998,535 11020,540C11047,547 11060,544 11060,529ZM11838,527C11844,520 11849,495 11848,472C11848,431 11838,419 11825,440C11820,448 11814,448 11806,441C11799,435 11790,433 11787,437C11778,445 11778,525 11787,533C11798,544 11827,541 11838,527ZM18795,520C18798,515 18796,510 18791,510C18785,510 18780,515 18780,520C18780,526 18782,530 18784,530C18787,530 18792,526 18795,520ZM10790,460L10790,412L10750,414C10723,416 10710,412 10710,403C10710,396 10706,390 10700,390C10695,390 10690,415 10690,445C10690,485 10694,500 10704,500C10712,500 10720,493 10724,485C10732,463 10745,467 10758,496C10775,533 10790,516 10790,460ZM12065,510C12069,504 12080,502 12091,505C12111,512 12118,492 12101,475C12096,469 12090,452 12088,436C12084,393 12060,390 12060,432C12060,450 12053,474 12045,484C12037,495 12030,507 12030,512C12030,524 12058,522 12065,510ZM22758,473C22793,428 22814,390 22803,390C22799,391 22782,409 22765,432C22749,455 22729,481 22721,492C22695,527 22729,510 22758,473ZM9165,470C9168,465 9166,460 9161,460C9155,460 9150,465 9150,470C9150,476 9152,480 9154,480C9157,480 9162,476 9165,470ZM14374,443C14365,422 14356,399 14353,393C14345,373 14320,378 14320,399C14320,420 14366,480 14381,480C14386,480 14383,463 14374,443ZM15693,454C15731,449 15741,443 15748,421C15754,407 15761,387 15765,378C15770,365 15767,363 15750,367C15739,370 15732,375 15735,378C15743,386 15709,420 15693,420C15686,420 15677,414 15675,408C15671,399 15645,395 15587,397C15516,398 15505,401 15505,416C15505,425 15512,435 15520,437C15533,441 15533,440 15520,431C15507,422 15507,420 15523,420C15532,420 15540,424 15540,430C15540,435 15564,438 15598,436C15629,433 15645,434 15633,436C15620,439 15610,446 15610,451C15610,462 15630,462 15693,454ZM7520,427C7520,420 7507,399 7490,380L7460,345L7486,393C7513,442 7520,449 7520,427ZM13978,394C13974,391 13960,396 13945,406C13925,419 13922,425 13932,431C13946,440 13989,405 13978,394ZM1200,404C1225,408 1228,406 1234,378C1239,354 1235,341 1220,325C1209,313 1200,296 1200,287C1200,277 1192,270 1180,270C1169,270 1160,277 1160,285C1160,293 1155,300 1149,300C1144,300 1140,292 1141,283C1144,250 1140,240 1125,240C1117,240 1110,245 1110,250C1110,256 1100,260 1088,260C1068,260 1067,259 1085,240C1100,223 1101,216 1092,195C1086,181 1074,170 1065,170C1057,170 1050,166 1050,160C1050,155 1040,150 1028,150C1016,150 998,142 988,133C973,119 969,119 972,130C976,147 922,154 903,138C896,132 889,133 885,140C882,145 887,153 897,157C907,160 934,181 957,202C981,223 1016,248 1035,257C1054,266 1070,279 1070,286C1070,293 1087,303 1108,309C1133,316 1136,318 1117,316C1091,313 1089,315 1095,341C1099,356 1097,378 1091,389C1081,406 1083,409 1108,412C1123,414 1143,412 1154,407C1164,402 1185,400 1200,404ZM13790,399C13790,393 13786,392 13780,395C13775,398 13770,406 13770,411C13770,417 13775,418 13780,415C13786,412 13790,404 13790,399ZM14501,353C14491,336 14491,336 14490,355C14490,366 14494,386 14498,400L14505,425L14508,398C14510,383 14507,363 14501,353ZM15165,378C15172,371 15166,369 15146,373C15113,379 15087,372 15095,360C15098,356 15093,347 15085,340C15067,325 15066,337 15080,375C15089,399 15094,401 15123,395C15140,391 15160,383 15165,378ZM17800,391C17800,386 17793,379 17784,376C17760,367 17756,369 17770,385C17784,402 17800,405 17800,391ZM7752,376C7751,373 7765,356 7782,339C7808,315 7805,316 7768,345C7741,366 7720,384 7720,385C7720,387 7728,387 7738,386C7747,384 7754,380 7752,376ZM15640,374C15640,372 15614,370 15583,371C15544,372 15533,374 15549,379C15573,385 15640,382 15640,374ZM16236,365C16259,353 16261,350 16245,350C16234,350 16207,355 16185,361C16163,367 16114,376 16075,381C16012,388 16015,388 16106,385C16169,382 16217,375 16236,365ZM22548,323C22592,219 22587,182 22535,216C22510,232 22506,258 22529,252C22550,248 22551,276 22530,324C22510,371 22504,399 22516,387C22520,383 22534,354 22548,323ZM8844,336C8841,315 8835,301 8833,304C8830,307 8831,325 8834,346C8838,366 8844,380 8846,377C8849,374 8848,356 8844,336ZM22834,364C22852,347 22856,325 22840,335C22829,342 22807,380 22814,380C22816,380 22826,373 22834,364ZM15735,360C15760,349 15734,349 15700,360C15680,366 15679,368 15695,368C15706,368 15724,365 15735,360ZM18885,352C18863,341 18853,340 18835,350C18820,358 18797,360 18770,355C18740,350 18729,351 18734,359C18739,366 18773,370 18827,369C18908,367 18911,366 18885,352ZM15455,340C15461,320 15455,300 15442,300C15438,300 15434,314 15433,330C15431,364 15445,371 15455,340ZM8199,338C8198,331 8200,317 8205,307C8209,297 8211,287 8208,285C8203,280 8163,272 8137,271C8127,270 8115,260 8110,248C8101,225 8101,225 8101,247C8100,260 8117,283 8146,309C8197,354 8202,356 8199,338ZM16373,334C16366,331 16364,316 16367,294C16373,255 16355,247 16328,279C16313,296 16314,299 16333,319C16345,330 16361,340 16370,339C16379,339 16380,336 16373,334ZM8749,248C8750,201 8738,199 8722,243C8707,285 8707,298 8723,314C8733,326 8736,324 8742,306C8745,295 8748,268 8749,248ZM10270,320C10270,315 10268,310 10266,310C10263,310 10258,315 10255,320C10252,326 10254,330 10259,330C10265,330 10270,326 10270,320ZM14425,321C14432,309 14394,296 14379,306C14371,310 14372,315 14381,321C14399,332 14417,332 14425,321ZM15302,275C15300,261 15294,252 15290,255C15280,261 15289,300 15300,300C15304,300 15305,289 15302,275ZM1000,269C1000,264 996,260 990,260C985,260 980,267 980,276C980,284 985,288 990,285C996,282 1000,275 1000,269ZM8700,253C8700,221 8695,225 8686,263C8682,282 8683,289 8690,285C8695,282 8700,267 8700,253ZM11593,245C11683,219 11773,179 11785,160C11789,154 11775,157 11753,166C11496,279 11312,285 11073,190C11032,173 10995,160 10992,160C10976,160 11050,202 11108,225C11257,285 11432,292 11593,245ZM16339,251C16348,245 16349,241 16341,235C16326,227 16300,236 16300,250C16300,262 16320,263 16339,251ZM6962,240C6943,236 6916,236 6902,240C6881,246 6889,248 6935,248C6986,248 6990,247 6962,240ZM8147,244C8144,241 8135,240 8128,243C8120,246 8123,249 8134,249C8145,250 8151,247 8147,244ZM7987,214C7980,207 7950,221 7950,231C7950,237 7959,236 7971,230C7982,223 7990,216 7987,214ZM9514,231C9517,226 9508,215 9494,205L9469,189L9485,214C9504,243 9506,244 9514,231ZM12547,234C12544,231 12535,230 12528,233C12520,236 12523,239 12534,239C12545,240 12551,237 12547,234ZM12503,223C12496,221 12484,221 12478,223C12471,226 12476,228 12490,228C12504,228 12509,226 12503,223ZM885,200C888,195 886,190 881,190C875,190 870,195 870,200C870,206 872,210 874,210C877,210 882,206 885,200ZM18387,123C18384,120 18376,121 18370,125C18362,130 18363,136 18372,147C18384,162 18385,161 18388,146C18390,136 18389,126 18387,123ZM10275,39C10266,26 10237,28 10217,43C10198,56 10169,130 10177,143C10180,148 10204,128 10231,100C10258,72 10278,44 10275,39ZM12895,140C12898,135 12894,130 12886,130C12877,130 12870,135 12870,140C12870,146 12874,150 12879,150C12885,150 12892,146 12895,140ZM22644,111C22638,105 22620,130 22620,145C22621,151 22627,146 22635,136C22643,125 22647,114 22644,111ZM16040,130C16052,122 16051,120 16033,120C16020,120 16010,125 16010,130C16010,143 16021,143 16040,130ZM22600,43C22600,23 22575,28 22553,53C22524,84 22508,118 22516,131C22523,143 22600,62 22600,43ZM22860,130C22860,125 22852,120 22843,120C22828,120 22827,122 22840,130C22859,142 22860,142 22860,130ZM5413,123C5406,121 5394,121 5388,123C5381,126 5386,128 5400,128C5414,128 5419,126 5413,123ZM5706,123C5695,112 5660,109 5660,120C5660,126 5672,130 5687,130C5701,130 5710,127 5706,123ZM6974,109C6990,104 7016,100 7031,100C7046,100 7062,95 7065,90C7069,84 7050,80 7016,80C6985,80 6960,76 6960,71C6960,56 6911,52 6899,66C6893,74 6884,78 6880,75C6870,69 6818,90 6808,105C6804,110 6805,117 6811,120C6824,128 6939,121 6974,109ZM9539,106C9544,102 9551,108 9553,117C9557,131 9558,130 9559,113C9560,92 9555,90 9515,90C9477,90 9470,93 9470,109C9470,126 9474,127 9500,120C9516,115 9534,109 9539,106ZM10830,116C10822,108 10783,88 10744,71C10675,41 10671,41 10545,45C10475,48 10415,52 10412,55C10409,58 10459,60 10522,60C10638,60 10723,77 10805,115C10843,133 10848,133 10830,116ZM11890,126C11890,123 11886,118 11880,115C11875,112 11870,114 11870,119C11870,125 11875,130 11880,130C11886,130 11890,128 11890,126ZM16337,114C16344,94 16314,66 16294,74C16276,81 16276,82 16293,91C16302,97 16310,108 16310,116C16310,133 16331,131 16337,114ZM18627,124C18624,121 18615,120 18608,123C18600,126 18603,129 18614,129C18625,130 18631,127 18627,124ZM5555,110C5552,105 5542,100 5534,100C5526,100 5520,105 5520,110C5520,116 5529,120 5541,120C5552,120 5558,116 5555,110ZM8056,109C8059,103 8058,94 8052,88C8039,75 7958,91 7952,108C7947,123 8046,125 8056,109ZM14280,116C14280,115 14275,99 14269,81C14259,53 14256,51 14245,66C14235,80 14236,87 14249,102C14263,118 14280,126 14280,116ZM6717,94C6741,91 6751,82 6759,58C6774,16 6765,11 6732,43C6701,72 6634,91 6584,83C6566,80 6538,81 6523,86L6495,94L6530,101C6564,107 6650,104 6717,94ZM15980,100C15972,95 15954,91 15940,91C15917,92 15917,93 15945,100C15988,111 15997,111 15980,100ZM16254,104C16280,94 16272,81 16240,82C16209,83 16200,94 16223,103C16229,106 16236,109 16237,109C16238,110 16245,107 16254,104ZM18473,49C18475,40 18471,33 18464,33C18456,33 18450,41 18450,51C18450,61 18446,72 18440,75C18435,78 18430,89 18430,98C18430,111 18435,109 18450,90C18460,76 18471,58 18473,49ZM12748,93C12738,91 12722,91 12713,93C12703,96 12711,98 12730,98C12749,98 12757,96 12748,93ZM15845,76C15792,51 15741,33 15751,44C15767,61 15848,99 15870,99C15889,99 15884,94 15845,76ZM20370,84C20370,70 20367,70 20355,80C20347,87 20340,94 20340,96C20340,98 20347,100 20355,100C20363,100 20370,93 20370,84ZM21063,80C21068,76 21061,63 21049,51L21026,30L21012,55C21005,69 21002,85 21005,91C21012,101 21048,94 21063,80ZM21844,66C21878,47 21914,30 21925,27C21936,25 21927,22 21905,21C21882,21 21847,29 21825,40C21804,51 21782,56 21776,52C21739,24 21510,5 21510,29C21510,34 21534,38 21563,38C21610,38 21721,68 21760,91C21781,103 21776,104 21844,66ZM717,75C724,54 719,50 693,56C680,60 673,67 677,76C684,95 709,94 717,75ZM5994,80C5978,64 5916,57 5874,65C5817,75 5852,90 5935,90C5982,90 6001,87 5994,80ZM9397,74C9400,66 9409,61 9416,64C9425,67 9430,63 9430,52C9430,42 9435,29 9442,22C9469,-5 9423,11 9392,40C9374,56 9352,74 9342,79C9328,88 9331,89 9358,90C9379,90 9393,84 9397,74ZM12395,76C12384,68 12339,59 12295,56C12229,51 12220,52 12240,62C12262,72 12330,84 12395,89C12414,90 12414,90 12395,76ZM12640,74C12570,56 12452,44 12463,56C12473,67 12599,87 12655,88C12694,88 12694,88 12640,74ZM18400,80C18400,75 18396,70 18390,70C18385,70 18380,75 18380,80C18380,86 18385,90 18390,90C18396,90 18400,86 18400,80ZM9680,44C9680,28 9644,25 9635,40C9631,46 9634,57 9640,66C9654,82 9680,68 9680,44ZM14085,69C14078,58 13940,57 13940,68C13940,72 13974,76 14015,77C14059,78 14088,75 14085,69ZM3419,66C3409,57 3280,51 3285,60C3288,66 3321,70 3357,70C3394,70 3421,68 3419,66ZM5478,63C5468,61 5450,61 5438,63C5425,65 5433,67 5455,67C5477,68 5487,66 5478,63ZM15948,63C15938,61 15922,61 15913,63C15903,66 15911,68 15930,68C15949,68 15957,66 15948,63ZM1205,50C1202,45 1195,40 1189,40C1184,40 1180,45 1180,50C1180,56 1187,60 1196,60C1204,60 1208,56 1205,50ZM5574,54C5583,51 5590,41 5590,34C5590,22 5586,22 5570,30C5559,36 5550,45 5550,50C5550,62 5553,62 5574,54ZM7066,51C7062,46 7048,43 7034,45C7019,46 7006,42 7003,34C6998,22 6970,13 6970,24C6970,26 6968,35 6965,42C6961,52 6973,56 7015,58C7048,59 7069,56 7066,51ZM7378,41C7382,30 7376,29 7354,34C7309,45 7299,62 7339,58C7358,56 7376,49 7378,41ZM9555,50C9552,45 9545,40 9539,40C9534,40 9530,45 9530,50C9530,56 9537,60 9546,60C9554,60 9558,56 9555,50ZM9950,50C9950,45 9943,43 9935,46C9927,50 9920,54 9920,56C9920,58 9927,60 9935,60C9943,60 9950,56 9950,50ZM7470,35C7462,26 7447,21 7431,24C7417,26 7401,29 7395,30C7377,33 7425,49 7454,49C7478,50 7481,48 7470,35ZM11140,35C11133,27 11120,20 11111,20C11100,21 11103,25 11120,35C11152,53 11155,53 11140,35ZM14365,40C14381,33 14378,31 14348,31C14327,30 14310,35 14310,40C14310,52 14337,52 14365,40ZM18930,40C18930,35 18922,30 18913,30C18898,30 18897,32 18910,40C18929,52 18930,52 18930,40ZM3170,31C3170,15 3151,8 3130,15C3100,25 3106,40 3140,40C3157,40 3170,36 3170,31ZM7118,28C7115,21 7105,13 7094,11C7078,8 7077,10 7089,24C7105,43 7123,45 7118,28ZM20480,30C20480,25 20473,23 20465,26C20457,30 20450,34 20450,36C20450,38 20457,40 20465,40C20473,40 20480,36 20480,30ZM21340,30C21351,23 21347,20 21322,20C21302,20 21291,24 21295,30C21303,43 21321,43 21340,30ZM2870,20C2870,15 2860,10 2848,10C2829,10 2828,12 2840,20C2859,33 2870,33 2870,20ZM2955,20C2959,14 2949,10 2933,10C2911,10 2908,12 2920,20C2939,32 2947,32 2955,20ZM14493,23C14486,21 14472,21 14463,23C14453,26 14459,28 14475,28C14492,28 14499,26 14493,23ZM18577,24C18574,21 18565,20 18558,23C18550,26 18553,29 18564,29C18575,30 18581,27 18577,24ZM3897,14C3894,11 3885,10 3878,13C3870,16 3873,19 3884,19C3895,20 3901,17 3897,14Z" style="fill-rule:nonzero;"/>
                <path d="M12033,1215C12036,1196 12046,1170 12054,1158C12070,1136 12070,1136 12070,1167C12070,1207 12054,1250 12039,1250C12031,1250 12029,1238 12033,1215Z" style="fill-rule:nonzero;"/>
                <path d="M11836,1088L11810,1053L11818,895C11826,747 11827,736 11849,719C11862,708 11884,700 11898,700L11923,700L11916,871C11910,1027 11907,1046 11886,1082L11862,1122L11836,1088Z" style="fill-rule:nonzero;"/>
                <path d="M12766,540C12770,466 12774,383 12775,356L12778,306L12831,293C12859,286 12884,281 12886,283C12889,286 12783,626 12769,655C12763,668 12762,627 12766,540Z" style="fill-rule:nonzero;"/>
                <path d="M10567,793C10564,789 10559,753 10555,714C10547,632 10554,621 10600,645C10634,662 10643,687 10638,751C10635,792 10633,795 10603,798C10586,800 10570,797 10567,793Z" style="fill-rule:nonzero;"/>
                <path d="M11562,500C11562,481 11564,473 11567,483C11569,492 11569,508 11567,518C11564,527 11562,519 11562,500Z" style="fill-rule:nonzero;"/>
                <path d="M11100,1370C11100,1359 11106,1350 11114,1350C11121,1350 11130,1359 11133,1370C11137,1385 11133,1390 11119,1390C11107,1390 11100,1383 11100,1370Z" style="fill-rule:nonzero;"/>
                <path d="M11176,1374C11168,1354 11186,1330 11209,1330C11218,1330 11245,1344 11269,1360L11313,1390L11248,1390C11196,1390 11181,1386 11176,1374Z" style="fill-rule:nonzero;"/>
                <path d="M11296,1360C11280,1345 11242,1324 11213,1315C11173,1302 11156,1291 11149,1273C11138,1243 11138,1240 11149,1240C11154,1240 11161,1249 11165,1259C11168,1269 11179,1280 11190,1283C11213,1289 11207,1270 11174,1225C11144,1186 11110,1040 11109,947C11108,893 11106,882 11100,905C11095,924 11092,887 11092,810C11092,739 11095,696 11100,710C11107,735 11107,735 11111,705C11113,687 11121,675 11130,675C11142,675 11146,692 11148,755C11150,799 11155,839 11159,843C11164,848 11191,854 11220,855C11262,858 11270,856 11261,846C11255,838 11253,824 11256,814C11262,797 11261,797 11246,815C11237,826 11242,808 11258,775C11289,708 11315,663 11306,693C11299,716 11326,716 11339,693C11358,658 11361,689 11342,727C11331,748 11317,782 11311,802C11300,836 11301,843 11321,872C11338,896 11346,924 11351,984C11354,1029 11367,1092 11378,1124C11392,1161 11400,1207 11400,1247C11400,1306 11399,1310 11381,1301C11347,1282 11316,1201 11314,1125C11313,1087 11309,1022 11304,981C11295,885 11279,868 11207,872L11155,875L11155,962C11155,1017 11160,1054 11168,1062C11174,1068 11180,1082 11180,1091C11180,1124 11229,1215 11257,1233C11272,1244 11299,1274 11315,1302C11332,1329 11353,1360 11363,1371C11380,1389 11380,1390 11353,1389C11336,1389 11313,1377 11296,1360Z" style="fill-rule:nonzero;"/>
                <path d="M11570,1359C11570,1342 11566,1321 11561,1311C11556,1302 11549,1238 11546,1170C11543,1095 11536,1044 11529,1039C11515,1031 11505,950 11514,915C11519,894 11526,889 11548,892L11575,895L11576,1005C11576,1066 11581,1136 11588,1160C11602,1218 11610,1359 11598,1366C11594,1369 11592,1376 11595,1381C11599,1386 11594,1390 11586,1390C11575,1390 11570,1380 11570,1359Z" style="fill-rule:nonzero;"/>
                <path d="M10775,1373C10764,1370 10744,1359 10731,1349C10718,1338 10699,1330 10690,1330C10652,1330 10536,1287 10519,1267C10501,1245 10501,1244 10537,1212C10557,1194 10576,1181 10581,1182C10585,1184 10609,1214 10635,1248C10696,1332 10706,1320 10646,1235C10597,1165 10592,1150 10614,1150C10628,1150 10696,1219 10725,1264C10735,1279 10767,1307 10797,1327C10836,1353 10848,1365 10838,1371C10824,1380 10807,1381 10775,1373Z" style="fill-rule:nonzero;"/>
                <path d="M11351,1324C11320,1284 11326,1272 11360,1305C11377,1321 11390,1337 11390,1342C11390,1358 11371,1349 11351,1324Z" style="fill-rule:nonzero;"/>
                <path d="M11759,1317C11721,1270 11700,1225 11700,1193L11700,1165L11715,1194C11723,1209 11730,1227 11730,1232C11730,1237 11743,1260 11758,1283C11798,1342 11802,1350 11793,1350C11789,1350 11773,1335 11759,1317Z" style="fill-rule:nonzero;"/>
                <path d="M10746,1264C10726,1245 10726,1239 10744,1246C10752,1249 10761,1258 10764,1266C10771,1284 10765,1284 10746,1264Z" style="fill-rule:nonzero;"/>
                <path d="M11505,1196C11456,1122 11447,1072 11444,875C11442,771 11443,691 11446,698C11451,708 11456,707 11471,694C11489,677 11490,679 11490,751C11490,832 11499,850 11538,850C11575,850 11598,867 11620,912C11644,961 11645,999 11625,1026C11612,1043 11611,1039 11610,977C11610,896 11600,874 11560,865C11498,851 11490,862 11490,954C11490,1002 11496,1052 11504,1071C11518,1105 11534,1220 11525,1220C11523,1220 11513,1209 11505,1196Z" style="fill-rule:nonzero;"/>
                <path d="M10280,1175C10273,1167 10272,1160 10278,1160C10283,1160 10293,1167 10300,1175C10307,1183 10308,1190 10302,1190C10297,1190 10287,1183 10280,1175Z" style="fill-rule:nonzero;"/>
                <path d="M11221,1136C11214,1128 11206,1106 11203,1086C11200,1066 11193,1047 11189,1044C11184,1041 11180,1007 11180,969L11180,899L11223,902L11265,905L11265,990C11266,1076 11254,1150 11240,1150C11236,1150 11227,1144 11221,1136Z" style="fill-rule:nonzero;"/>
                <path d="M10592,1072C10594,1061 10590,1047 10584,1039C10577,1031 10571,996 10569,960L10565,895L10595,895C10616,895 10628,902 10637,920C10654,954 10653,1021 10634,1058C10617,1093 10587,1102 10592,1072Z" style="fill-rule:nonzero;"/>
                <path d="M10938,653C10945,650 10954,651 10957,654C10961,657 10955,660 10944,659C10933,659 10930,656 10938,653Z" style="fill-rule:nonzero;"/>
            </g>
        </g>
    </g>
</svg>
