<?xml version="1.0" standalone="no"?>
<!DOCTYPE svg PUBLIC "-//W3C//DTD SVG 20010904//EN"
 "http://www.w3.org/TR/2001/REC-SVG-20010904/DTD/svg10.dtd">
<svg version="1.0" xmlns="http://www.w3.org/2000/svg"
 width="2295.000000pt" height="139.000000pt" viewBox="0 0 2295.000000 139.000000"
 preserveAspectRatio="xMidYMid meet">

<g transform="translate(0.000000,139.000000) scale(0.100000,-0.100000)"
fill="#000000" stroke="none">
<path d="M0 751 l0 -639 48 1 c77 1 112 -3 112 -10 0 -5 -9 -19 -19 -32 -17
-22 -20 -23 -40 -9 -14 10 -33 13 -58 9 -34 -6 -38 -10 -41 -39 l-3 -32 1009
0 c1003 1 1009 1 1063 22 76 30 210 67 203 57 -2 -5 -45 -20 -94 -35 -50 -15
-90 -30 -90 -33 0 -3 113 -7 251 -8 231 -3 250 -2 247 14 -2 10 -16 20 -35 24
-17 3 -43 16 -58 28 -15 11 -33 21 -40 21 -7 0 -32 8 -55 19 -41 18 -41 19
-15 25 29 7 37 6 138 -27 37 -12 67 -27 67 -34 0 -13 16 -16 86 -13 56 2 117
-15 139 -40 18 -20 29 -20 2249 -20 1444 0 2226 4 2216 10 -8 5 -26 10 -40 10
-27 0 -95 22 -106 33 -10 10 61 8 114 -2 24 -5 57 -18 73 -30 28 -20 37 -21
398 -21 286 0 371 3 375 13 5 9 7 9 12 0 4 -10 686 -13 3320 -13 2213 0 3313
3 3309 10 -3 5 -15 10 -26 10 -11 0 -34 7 -52 16 -17 9 -63 25 -102 34 l-70
18 49 1 c54 1 166 -26 166 -41 0 -4 11 -13 25 -18 14 -5 25 -14 25 -20 0 -5 7
-10 16 -10 8 0 13 4 9 10 -7 11 43 46 52 36 4 -3 1 -12 -5 -18 -7 -7 -12 -16
-12 -20 0 -4 159 -8 353 -8 331 1 350 2 322 17 -16 9 -25 18 -19 20 16 5 64
-15 64 -27 0 -6 33 -10 84 -10 72 0 85 3 89 18 4 16 5 16 6 0 1 -17 23 -18
306 -18 298 0 305 0 305 20 0 11 5 20 10 20 6 0 10 -9 10 -20 0 -19 7 -20 111
-20 100 0 110 2 106 18 -3 9 -8 34 -12 55 -5 30 -3 37 10 37 18 0 35 -39 35
-81 l0 -29 890 0 c784 0 890 2 890 15 0 8 5 15 10 15 6 0 10 -7 10 -15 0 -13
41 -15 303 -15 288 1 304 2 320 20 9 11 24 20 32 20 9 0 13 5 10 11 -8 12 113
2 130 -11 13 -10 75 -18 75 -10 0 3 -5 11 -11 17 -9 9 -2 12 29 11 22 0 45 3
51 6 7 5 11 -5 11 -28 l0 -36 118 1 c91 0 112 3 95 11 -13 6 -23 15 -23 19 0
12 102 -2 127 -17 31 -20 2889 -21 2896 -1 4 10 6 10 6 0 1 -10 30 -13 111
-13 93 0 109 2 104 15 -4 9 0 15 8 15 8 0 28 7 45 15 45 23 77 23 81 1 2 -10
0 -16 -6 -12 -15 9 -42 -4 -42 -20 0 -10 13 -14 45 -14 39 0 45 3 45 21 0 11
-4 28 -9 37 -4 9 -11 31 -15 47 -6 28 -5 29 9 11 13 -18 15 47 15 627 l0 647
-850 0 c-812 0 -850 -1 -850 -18 0 -10 5 -23 12 -30 9 -9 4 -12 -25 -12 -34 0
-37 2 -37 30 l0 30 -82 -1 c-46 0 -77 -3 -70 -6 20 -8 3 -23 -27 -23 -16 0
-34 7 -41 15 -11 13 -502 15 -4307 15 l-4295 0 6 -32 c6 -28 5 -30 -7 -15 -12
17 -14 17 -41 -8 -31 -28 -31 -25 -2 -150 9 -38 16 -99 16 -135 0 -36 7 -128
14 -205 13 -134 11 -171 -11 -143 -5 7 -38 75 -73 150 -36 75 -66 136 -67 134
-1 -1 13 -46 33 -100 19 -54 33 -101 30 -103 -6 -7 -47 75 -57 112 -4 17 -14
52 -22 78 -12 36 -12 45 -3 37 10 -8 12 -4 8 17 -8 49 23 7 78 -106 28 -57 52
-102 54 -100 6 6 -22 249 -33 289 -8 32 -9 33 -10 8 -1 -37 -21 -36 -21 1 0
39 10 62 22 55 16 -10 0 89 -16 100 -10 7 -1 22 35 60 l48 51 -207 3 c-113 1
-213 0 -220 -3 -9 -3 -12 -13 -9 -27 6 -20 4 -20 -19 5 -29 31 -55 35 -69 9
-34 -63 -75 -157 -75 -174 0 -11 -7 -27 -16 -35 -14 -14 -15 -40 -10 -207 8
-236 10 -247 44 -277 20 -18 22 -19 9 -3 -26 31 -20 37 13 13 16 -12 27 -26
24 -30 -2 -4 5 -11 16 -14 18 -6 42 -4 130 10 31 4 33 19 27 199 -6 163 -1
223 18 205 3 -3 8 -91 12 -196 l6 -189 -31 -35 c-28 -32 -34 -34 -91 -32 -42
1 -76 8 -108 25 -76 37 -81 51 -91 233 -5 88 -18 196 -28 240 -16 72 -16 87
-4 130 8 28 32 72 57 102 l43 53 -54 0 -54 0 -6 -42 c-4 -24 -9 -94 -12 -156
-5 -89 -3 -117 8 -135 8 -12 18 -45 22 -74 12 -92 -33 -156 -119 -169 l-44 -6
-3 -77 -3 -76 -44 -3 c-28 -2 -47 1 -52 10 -5 7 -9 94 -9 193 l0 179 37 91
c20 49 45 100 55 111 14 16 57 129 58 152 0 1 -36 2 -80 2 l-81 0 22 -29 c33
-45 24 -146 -24 -258 -21 -48 -27 -79 -27 -134 0 -54 -5 -80 -21 -109 l-22
-38 33 -70 c41 -89 36 -104 -27 -100 l-48 3 -38 77 c-28 59 -42 78 -57 78 -18
0 -20 -7 -20 -75 0 -63 -3 -76 -19 -85 -27 -14 -78 -13 -84 3 -12 32 21 550
38 596 3 7 1 19 -5 26 -8 9 -6 14 5 19 8 3 15 12 15 21 0 17 -31 20 -46 5 -5
-5 -19 -7 -30 -4 -16 4 -20 11 -16 30 4 22 1 24 -32 24 -73 0 -181 -68 -243
-153 -30 -42 -38 -62 -39 -102 -1 -27 -7 -63 -13 -78 -6 -16 -11 -42 -11 -58
0 -62 -66 -125 -122 -117 -23 3 -23 3 -20 133 l3 130 -28 -27 c-28 -27 -29
-30 -41 -200 -27 -371 -27 -372 -10 -365 9 3 35 11 57 18 27 8 37 15 29 20 -8
5 -4 11 16 18 15 6 36 16 47 21 13 8 19 7 19 0 0 -6 -14 -16 -31 -22 -16 -6
-28 -12 -26 -14 2 -2 25 3 51 12 67 23 86 57 86 153 0 62 -4 78 -21 97 l-21
22 26 45 c18 30 26 58 26 90 0 36 5 49 22 61 11 8 33 46 48 84 30 77 67 142
80 142 5 0 0 -19 -10 -43 -23 -53 -40 -123 -31 -134 4 -4 5 -44 2 -88 -3 -61
-6 -72 -11 -45 -3 20 -9 -45 -14 -148 -4 -101 -6 -186 -3 -189 3 -2 27 -1 54
3 36 5 43 9 28 14 -16 6 -12 9 20 15 22 4 48 9 59 12 13 4 16 1 11 -7 -5 -8
-3 -11 5 -8 8 2 16 10 18 16 3 9 -14 12 -65 10 l-68 -3 -3 60 c-2 33 -1 79 3
103 l6 42 57 2 57 1 -55 6 -55 6 0 79 c0 50 4 81 11 83 8 3 10 -17 6 -66 l-5
-70 59 -3 c55 -3 59 -5 62 -30 4 -34 -29 -58 -80 -58 l-38 0 -1 -50 c-1 -27
-2 -56 -3 -62 -1 -9 18 -13 63 -13 57 0 64 -2 72 -23 16 -43 -3 -58 -100 -76
-107 -19 -137 -20 -144 -4 -2 7 0 109 4 227 5 118 7 216 4 219 -13 13 -33 -24
-38 -72 -3 -30 -13 -69 -22 -87 -16 -30 -16 -34 -1 -60 21 -36 21 -146 0 -199
-19 -48 -53 -70 -159 -104 -91 -29 -130 -32 -138 -12 -3 8 -2 79 3 158 22 327
23 378 12 378 -17 0 -34 -39 -86 -190 -42 -124 -46 -147 -54 -276 -5 -78 -13
-147 -17 -154 -4 -6 -23 -18 -42 -26 -18 -8 -31 -19 -28 -24 11 -18 -11 -11
-29 9 -15 17 -16 32 -5 174 12 169 11 174 -47 377 -27 93 -28 100 -16 100 16
0 45 -85 92 -269 9 -33 9 -80 -1 -188 -7 -79 -10 -146 -6 -149 3 -3 18 0 34 8
28 13 28 14 41 162 12 134 18 163 62 287 37 108 55 145 83 172 34 35 53 92 34
104 -5 3 -22 -4 -38 -16 -16 -12 -29 -17 -29 -12 0 5 4 13 10 16 5 3 17 21 26
40 9 19 24 37 34 40 22 7 55 43 47 52 -4 3 -39 -16 -78 -43 -150 -103 -171
-115 -183 -98 -9 12 -17 13 -39 5 -29 -11 -28 -31 1 -31 14 -1 13 -4 -7 -20
-26 -23 -45 -17 -38 11 3 10 1 22 -4 25 -5 3 -9 14 -9 25 0 11 4 18 9 14 5 -3
12 -1 16 5 3 5 16 10 29 10 12 0 31 8 42 18 30 27 149 102 162 102 7 0 12 5
12 12 0 6 3 8 6 5 4 -4 1 -14 -7 -23 -13 -16 -12 -17 11 -10 14 5 45 11 70 15
39 5 42 8 26 17 -16 10 -10 12 36 18 30 4 74 13 99 21 40 13 26 14 -180 14
l-224 1 7 -70 c5 -59 4 -69 -9 -64 -10 4 -15 20 -15 48 0 66 -9 86 -38 86
l-25 0 5 -90 c3 -50 2 -87 -3 -84 -5 3 -9 12 -9 21 0 31 -24 83 -38 83 -9 0
-13 10 -10 33 l3 32 -112 3 c-123 3 -124 2 -103 -54 16 -40 3 -42 -30 -5 -35
37 -37 48 -12 54 9 3 -1969 5 -4396 6 l-4414 1 -19 -22 -18 -23 -1 23 0 22
-515 0 -515 0 0 -639z m12969 600 l32 -28 -40 -79 c-36 -72 -39 -76 -43 -49
-2 17 1 43 7 58 9 25 7 32 -17 52 -24 21 -26 26 -15 49 16 33 36 33 76 -3z
m-3132 3 c-3 -3 -12 -4 -19 -1 -8 3 -5 6 6 6 11 1 17 -2 13 -5z m3421 -1 c-10
-2 -18 -8 -18 -13 0 -5 -26 -26 -57 -46 -32 -20 -88 -66 -126 -102 -58 -56
-66 -61 -57 -36 6 16 24 43 40 61 17 18 30 39 30 49 0 11 5 14 16 10 10 -4 30
4 50 19 18 14 37 25 42 25 5 0 17 9 27 20 10 11 30 19 44 19 17 -1 20 -3 9 -6z
m-3555 -22 c36 -14 35 -32 -2 -25 -20 4 -30 2 -34 -10 -10 -25 -36 -19 -77 18
l-37 34 61 -3 c33 -2 73 -8 89 -14z m-8683 -5 c0 -16 -18 -31 -27 -22 -8 8 5
36 17 36 5 0 10 -6 10 -14z m10994 -26 c10 0 13 6 9 18 -6 15 -5 15 10 3 9 -7
17 -20 17 -28 0 -8 10 -28 21 -45 15 -21 25 -26 32 -19 20 20 29 11 23 -21 -3
-18 -7 -44 -9 -58 -1 -18 -9 -26 -25 -28 -18 -3 -22 -8 -16 -20 9 -23 11 -43
25 -284 9 -165 15 -208 26 -208 7 0 16 -7 19 -15 4 -8 11 -15 16 -15 11 0 5
145 -11 295 -8 71 -6 95 10 95 9 0 80 -144 165 -334 54 -122 58 -128 107 -140
29 -7 29 -6 23 31 -3 21 -15 143 -26 272 -16 188 -24 240 -39 265 -14 23 -20
54 -22 118 -2 48 0 90 4 94 4 4 7 2 7 -4 0 -6 11 -27 24 -46 19 -29 25 -53 30
-133 4 -54 18 -217 32 -362 18 -186 23 -266 15 -274 -13 -13 -80 5 -110 31
-11 9 -54 94 -96 187 -42 94 -81 175 -87 180 -7 7 -8 -9 -4 -50 22 -241 21
-255 -25 -255 -45 0 -68 16 -73 53 -3 17 -10 131 -16 252 -7 131 -18 242 -27
275 -20 74 -49 144 -61 148 -11 3 -102 -128 -102 -147 0 -6 7 -11 15 -11 32 0
42 -51 47 -232 5 -191 0 -218 -44 -218 -25 0 -75 29 -84 49 -11 24 -32 335
-23 341 4 3 16 26 27 50 28 64 76 138 124 188 39 41 42 43 50 23 4 -12 14 -21
22 -21z m553 -7 c-3 -10 -5 -2 -5 17 0 19 2 27 5 18 2 -10 2 -26 0 -35z
m-1094 -36 c-3 -21 -10 -34 -14 -30 -5 5 -6 26 -2 46 3 21 10 34 14 30 5 -5 6
-26 2 -46z m427 38 c-7 -9 -15 -13 -17 -11 -7 7 7 26 19 26 6 0 6 -6 -2 -15z
m1427 0 c8 -22 -6 -33 -17 -15 -13 20 -12 30 0 30 6 0 13 -7 17 -15z m-282
-15 c-20 -23 -29 -21 -19 4 3 9 13 16 22 16 13 0 12 -3 -3 -20z m-12675 0 c0
-5 -7 -10 -16 -10 -8 0 -12 5 -9 10 3 6 10 10 16 10 5 0 9 -4 9 -10z m10610
-6 c0 -13 6 -15 27 -9 24 6 25 5 13 -12 -8 -10 -33 -37 -57 -59 -25 -25 -46
-55 -49 -73 -9 -42 -24 -50 -24 -12 0 16 -6 31 -12 34 -10 4 -10 7 0 18 6 7
12 22 12 34 0 20 64 95 81 95 5 0 9 -7 9 -16z m868 -8 c-10 -7 -18 -18 -18
-25 0 -6 -4 -11 -10 -11 -5 0 -10 5 -10 11 0 13 30 38 45 38 6 0 2 -6 -7 -13z
m-1691 -48 c-2 -13 -4 -5 -4 17 -1 22 1 32 4 23 2 -10 2 -28 0 -40z m1963 42
c0 -5 -4 -10 -9 -10 -6 0 -13 5 -16 10 -3 6 1 10 9 10 9 0 16 -4 16 -10z
m6478 -2 c-3 -7 -15 -15 -28 -16 -21 -3 -22 -2 -11 12 16 19 44 21 39 4z
m-18058 -8 c0 -5 -9 -10 -21 -10 -11 0 -17 5 -14 10 3 6 13 10 21 10 8 0 14
-4 14 -10z m9473 -95 c14 -27 37 -61 51 -74 33 -31 37 -95 7 -111 -36 -19 -71
-12 -81 15 -11 30 -40 33 -65 5 -18 -20 -21 -41 -59 -435 -21 -214 -21 -235 3
-235 28 0 69 47 73 83 3 27 10 34 51 51 66 28 74 18 58 -76 -6 -39 -21 -87
-33 -106 -26 -43 -89 -89 -141 -103 l-39 -10 7 -64 6 -64 -30 1 c-17 1 -38 9
-48 20 -16 17 -15 20 15 49 18 17 32 39 32 48 0 10 14 22 33 29 58 21 122 70
145 110 20 36 42 152 29 152 -26 0 -57 -26 -57 -48 0 -33 -69 -102 -103 -102
-51 0 -52 8 -23 313 35 360 39 386 71 415 34 29 69 28 93 -3 27 -35 52 -33 52
4 0 21 -9 34 -34 52 -34 23 -49 55 -61 130 -6 40 6 62 16 27 3 -13 17 -45 32
-73z m2231 42 c0 -28 -2 -74 -3 -102 -3 -49 -3 -49 -11 -16 -12 50 -2 171 13
171 1 0 2 -24 1 -53z m367 -78 c10 -68 25 -218 34 -334 16 -209 38 -385 50
-405 3 -5 18 -10 32 -10 25 0 25 2 20 43 -3 23 -9 95 -13 159 -6 100 -4 121
10 143 9 14 21 25 26 25 5 0 21 -39 36 -87 98 -328 135 -433 159 -449 13 -9
28 -13 34 -10 5 3 11 -1 15 -9 3 -8 10 -15 15 -15 5 0 -40 147 -100 327 -60
179 -109 332 -109 340 0 26 71 181 91 199 10 9 19 14 19 11 0 -4 -19 -52 -42
-108 l-42 -102 115 -341 c63 -188 119 -349 123 -358 7 -16 3 -18 -31 -18 -30
0 -46 7 -64 26 -13 14 -36 32 -51 40 -16 8 -28 20 -28 27 0 8 -33 20 -90 31
-106 22 -266 18 -365 -9 -69 -19 -165 -73 -165 -93 0 -9 -7 -11 -20 -8 -67 19
-65 15 -23 52 83 76 233 124 391 125 72 0 84 2 68 12 -11 7 -30 22 -42 33 -12
12 -33 24 -47 28 -62 15 -66 26 -87 236 -11 107 -25 283 -30 390 -9 197 -7
209 26 210 18 0 26 -81 13 -141 -13 -60 -9 -158 18 -442 18 -189 26 -218 59
-197 14 9 19 21 17 48 -11 150 -54 667 -59 711 -4 41 -3 52 7 49 9 -3 19 -48
30 -129z m684 72 c-18 -35 -35 -41 -35 -12 0 11 -5 23 -10 26 -6 4 -8 11 -4
16 3 5 10 7 15 4 5 -4 17 -2 26 4 24 13 27 -1 8 -38z m-12925 14 c0 -8 -7 -15
-16 -15 -14 0 -14 3 -4 15 7 8 14 15 16 15 2 0 4 -7 4 -15z m9470 6 c0 -6 -4
-13 -10 -16 -5 -3 -10 1 -10 9 0 9 5 16 10 16 6 0 10 -4 10 -9z m1951 -60 c-6
-20 -15 -52 -21 -71 -8 -28 -9 -20 -4 40 6 74 25 124 33 85 2 -10 -2 -34 -8
-54z m367 -37 c4 -88 -16 -76 -23 15 -3 46 -1 61 8 58 7 -2 13 -30 15 -73z
m42 62 c0 -8 3 -23 6 -33 3 -10 -2 -7 -10 7 -18 30 -20 40 -6 40 6 0 10 -6 10
-14z m466 -43 c9 -32 23 -68 32 -81 8 -12 17 -51 20 -87 2 -36 8 -65 11 -65
11 0 61 145 61 178 0 17 5 34 10 37 6 3 10 -3 10 -14 0 -10 5 -21 11 -23 7 -2
-8 -53 -41 -136 -30 -76 -57 -131 -64 -129 -6 2 -16 51 -22 115 -7 73 -17 118
-26 130 -15 16 -35 132 -24 132 3 0 13 -26 22 -57z m593 0 c-1 -16 -35 -67
-46 -70 -8 -3 -6 10 5 36 9 23 23 41 30 41 6 0 12 -3 11 -7z m9171 -7 c0 -6
-82 -58 -86 -53 -2 2 13 16 33 30 35 25 53 33 53 23z m-12499 -39 c-10 -9 -11
-8 -5 6 3 10 9 15 12 12 3 -3 0 -11 -7 -18z m3212 -6 c3 -11 2 -22 -1 -25 -9
-10 -42 -7 -42 4 0 6 5 10 10 10 6 0 10 7 10 15 0 22 17 18 23 -4z m-2876 -13
c-3 -8 -6 -5 -6 6 -1 11 2 17 5 13 3 -3 4 -12 1 -19z m-10229 -6 c2 -7 -3 -12
-12 -12 -9 0 -16 7 -16 16 0 17 22 14 28 -4z m10212 -77 c7 -30 16 -55 20 -55
4 0 13 20 20 45 8 30 23 53 41 66 35 25 36 21 5 -39 -13 -26 -24 -65 -24 -86
-1 -37 -35 -87 -49 -72 -9 9 -60 205 -55 211 12 11 30 -18 42 -70z m-428 23
c-15 -50 -19 -79 -52 -386 -38 -358 -38 -400 -4 -441 23 -27 24 -31 7 -31 -32
0 -63 60 -63 122 0 56 65 661 76 708 7 30 34 74 41 67 3 -3 0 -21 -5 -39z
m9278 22 c0 -5 -2 -10 -4 -10 -3 0 -8 5 -11 10 -3 6 -1 10 4 10 6 0 11 -4 11
-10z m2725 -10 c3 -5 -1 -10 -10 -10 -9 0 -13 5 -10 10 3 6 8 10 10 10 2 0 7
-4 10 -10z m-8669 -27 c3 -16 9 -39 13 -53 9 -28 -4 -66 -25 -74 -24 -9 -54
30 -54 72 0 68 53 112 66 55z m75 -6 c-10 -9 -11 -8 -5 6 3 10 9 15 12 12 3
-3 0 -11 -7 -18z m-11821 -16 c0 -17 -4 -32 -9 -35 -12 -8 -23 23 -16 45 10
29 25 22 25 -10z m20640 8 c0 -5 -4 -9 -10 -9 -5 0 -10 7 -10 16 0 8 5 12 10
9 6 -3 10 -10 10 -16z m-440 -120 c0 -14 -20 -10 -20 4 0 6 -9 23 -20 37 -11
14 -20 29 -20 34 0 5 14 -8 30 -29 17 -21 30 -42 30 -46z m-8153 65 c-3 -3
-12 -4 -19 -1 -8 3 -5 6 6 6 11 1 17 -2 13 -5z m-11592 -81 c-3 -18 -10 -31
-16 -28 -13 8 -11 48 3 82 11 28 12 28 16 4 2 -13 1 -39 -3 -58z m11545 67
c-8 -5 -22 -9 -30 -9 -10 0 -8 3 5 9 27 12 43 12 25 0z m8745 -10 c3 -11 -1
-30 -11 -45 -13 -20 -19 -23 -30 -14 -27 22 -11 79 22 79 7 0 15 -9 19 -20z
m-8956 -27 c-7 -10 -22 -25 -32 -34 -14 -11 -18 -26 -15 -59 l3 -44 28 43 c16
24 31 40 34 37 4 -3 -3 -16 -13 -29 -38 -42 -54 -76 -54 -115 0 -26 -7 -45
-19 -56 -19 -17 -20 -17 -32 6 -8 14 -12 57 -11 117 2 98 9 116 46 107 10 -3
29 6 45 20 30 28 39 31 20 7z m-11829 -3 c0 -5 -4 -10 -10 -10 -5 0 -10 5 -10
10 0 6 5 10 10 10 6 0 10 -4 10 -10z m7617 -27 c-3 -10 -5 -4 -5 12 0 17 2 24
5 18 2 -7 2 -21 0 -30z m2770 -5 c-3 -7 -5 -2 -5 12 0 14 2 19 5 13 2 -7 2
-19 0 -25z m-1107 12 c0 -5 -5 -10 -12 -10 -6 0 -1 -10 11 -22 21 -19 23 -27
18 -86 -4 -54 -10 -69 -34 -94 -17 -17 -44 -31 -67 -35 l-38 -6 5 104 c6 144
6 143 58 150 24 3 47 7 52 7 4 1 7 -2 7 -8z m11200 -10 c0 -5 -4 -10 -10 -10
-5 0 -10 5 -10 10 0 6 5 10 10 10 6 0 10 -4 10 -10z m-177 -47 c4 -7 17 -13
28 -13 22 0 24 -30 3 -37 -17 -6 -84 61 -84 82 0 17 1 17 23 -1 12 -10 26 -25
30 -31z m-9916 -5 c-3 -7 -5 -2 -5 12 0 14 2 19 5 13 2 -7 2 -19 0 -25z
m10123 22 c0 -5 -4 -10 -10 -10 -5 0 -10 5 -10 10 0 6 5 10 10 10 6 0 10 -4
10 -10z m-6349 -60 c5 0 9 -4 9 -10 0 -5 -11 -10 -25 -10 -16 0 -25 6 -25 16
0 11 5 14 16 10 9 -3 20 -6 25 -6z m-10128 -15 c-3 -9 -8 -14 -10 -11 -3 3 -2
9 2 15 9 16 15 13 8 -4z m2782 -15 c-3 -5 7 -8 22 -7 22 2 29 -3 31 -19 4 -28
-31 -37 -79 -21 -32 11 -35 15 -26 34 9 21 34 34 50 26 4 -3 5 -8 2 -13z m86
-7 c13 -16 12 -17 -3 -4 -10 7 -18 15 -18 17 0 8 8 3 21 -13z m4930 -16 c-13
-12 -20 -15 -16 -7 14 26 28 41 33 35 3 -3 -5 -16 -17 -28z m8725 -29 c8 -13
-39 -58 -62 -58 -19 0 -18 29 3 52 18 20 48 24 59 6z m-20960 -45 c-10 -10
-19 5 -10 18 6 11 8 11 12 0 2 -7 1 -15 -2 -18z m13048 9 c2 -4 -4 -9 -15 -9
-10 -1 -19 2 -19 8 0 11 27 12 34 1z m-12984 -12 c0 -5 -2 -10 -4 -10 -3 0 -8
5 -11 10 -3 6 -1 10 4 10 6 0 11 -4 11 -10z m3671 -33 c-12 -30 -45 -39 -34
-9 9 24 37 55 41 44 1 -5 -2 -21 -7 -35z m40 0 c-8 -8 -11 -7 -11 4 0 20 13
34 18 19 3 -7 -1 -17 -7 -23z m17959 -62 c-1 -16 -40 38 -40 55 0 8 9 2 20
-15 11 -16 20 -34 20 -40z m-11415 14 l19 -20 17 22 c22 29 39 16 39 -29 0
-46 -16 -75 -26 -49 -5 13 -10 15 -19 7 -9 -8 -15 -8 -20 0 -9 15 -25 12 -25
-5 0 -8 -4 -15 -10 -15 -5 0 -10 25 -10 55 0 60 7 66 35 34z m304 7 c7 -8 11
-31 9 -52 -6 -73 -68 -68 -68 5 0 54 32 79 59 47z m-529 -17 c0 -5 -9 -9 -20
-9 -11 0 -20 -4 -20 -10 0 -5 5 -10 10 -10 6 0 10 -7 10 -15 0 -8 -4 -15 -10
-15 -5 0 -10 -4 -10 -10 0 -5 9 -10 20 -10 11 0 20 -5 20 -11 0 -6 -14 -9 -32
-7 -32 3 -33 4 -33 53 0 44 3 50 25 55 27 7 40 4 40 -11z m778 -2 c6 -7 11
-32 10 -55 0 -41 -10 -53 -23 -32 -5 8 -11 8 -19 1 -7 -6 -16 -8 -19 -4 -9 8
-9 88 0 96 11 11 40 8 51 -6z m6957 -7 c3 -5 1 -10 -4 -10 -6 0 -11 5 -11 10
0 6 2 10 4 10 3 0 8 -4 11 -10z m-8005 -60 l0 -48 -40 2 c-27 2 -40 -2 -40
-11 0 -7 -4 -13 -10 -13 -5 0 -10 25 -10 55 0 40 4 55 14 55 8 0 16 -7 20 -15
8 -22 21 -18 34 11 17 37 32 20 32 -36z m1275 50 c4 -6 15 -8 26 -5 20 7 27
-13 10 -30 -5 -6 -11 -23 -13 -39 -4 -43 -28 -46 -28 -4 0 18 -7 42 -15 52 -8
11 -15 23 -15 28 0 12 28 10 35 -2z m10693 -37 c35 -45 56 -83 45 -83 -4 1
-21 19 -38 42 -16 23 -36 49 -44 60 -26 35 8 18 37 -19z m-13593 -3 c3 -5 1
-10 -4 -10 -6 0 -11 5 -11 10 0 6 2 10 4 10 3 0 8 -4 11 -10z m5209 -27 c-9
-21 -18 -44 -21 -50 -8 -20 -33 -15 -33 6 0 21 46 81 61 81 5 0 2 -17 -7 -37z
m1319 11 c38 -5 48 -11 55 -33 6 -14 13 -34 17 -43 5 -13 2 -15 -15 -11 -11 3
-18 8 -15 11 8 8 -26 42 -42 42 -7 0 -16 -6 -18 -12 -4 -9 -30 -13 -88 -11
-71 1 -82 4 -82 19 0 9 7 19 15 21 13 4 13 3 0 -6 -13 -9 -13 -11 3 -11 9 0
17 4 17 10 0 5 24 8 58 6 31 -3 47 -2 35 0 -13 3 -23 10 -23 15 0 11 20 11 83
3z m-8173 -27 c0 -7 -13 -28 -30 -47 l-30 -35 26 48 c27 49 34 56 34 34z
m6458 -33 c-4 -3 -18 2 -33 12 -20 13 -23 19 -13 25 14 9 57 -26 46 -37z
m-12778 10 c25 4 28 2 34 -26 5 -24 1 -37 -14 -53 -11 -12 -20 -29 -20 -38 0
-10 -8 -17 -20 -17 -11 0 -20 7 -20 15 0 8 -5 15 -11 15 -5 0 -9 -8 -8 -17 3
-33 -1 -43 -16 -43 -8 0 -15 5 -15 10 0 6 -10 10 -22 10 -20 0 -21 -1 -3 -20
15 -17 16 -24 7 -45 -6 -14 -18 -25 -27 -25 -8 0 -15 -4 -15 -10 0 -5 -10 -10
-22 -10 -12 0 -30 -8 -40 -17 -15 -14 -19 -14 -16 -3 4 17 -50 24 -69 8 -7 -6
-14 -5 -18 2 -3 5 2 13 12 17 10 3 37 24 60 45 24 21 59 46 78 55 19 9 35 22
35 29 0 7 17 17 38 23 25 7 28 9 9 7 -26 -3 -28 -1 -22 25 4 15 2 37 -4 48
-10 17 -8 20 17 23 15 2 35 0 46 -5 10 -5 31 -7 46 -3z m12590 -5 c0 -6 -4 -7
-10 -4 -5 3 -10 11 -10 16 0 6 5 7 10 4 6 -3 10 -11 10 -16z m711 -46 c-10
-17 -10 -17 -11 2 0 11 4 31 8 45 l7 25 3 -27 c2 -15 -1 -35 -7 -45z m664 25
c7 -7 1 -9 -19 -5 -33 6 -59 -1 -51 -13 3 -4 -2 -13 -10 -20 -18 -15 -19 -3
-5 35 9 24 14 26 43 20 17 -4 37 -12 42 -17z m2635 13 c0 -5 -7 -12 -16 -15
-24 -9 -28 -7 -14 9 14 17 30 20 30 6z m-10048 -15 c-1 -3 13 -20 30 -37 26
-24 23 -23 -14 6 -27 21 -48 39 -48 40 0 2 8 2 18 1 9 -2 16 -6 14 -10z m7888
-2 c0 -2 -26 -4 -57 -3 -39 1 -50 3 -34 8 24 6 91 3 91 -5z m596 -9 c23 -12
25 -15 9 -15 -11 0 -38 5 -60 11 -22 6 -71 15 -110 20 -63 7 -60 7 31 4 63 -3
111 -10 130 -20z m6312 -42 c44 -104 39 -141 -13 -107 -25 16 -29 42 -6 36 21
-4 22 24 1 72 -20 47 -26 75 -14 63 4 -4 18 -33 32 -64z m-13704 13 c-3 -21
-9 -35 -11 -32 -3 3 -2 21 1 42 4 20 10 34 12 31 3 -3 2 -21 -2 -41z m13990
28 c18 -17 22 -39 6 -29 -11 7 -33 45 -26 45 2 0 12 -7 20 -16z m-7099 -4 c25
-11 -1 -11 -35 0 -20 6 -21 8 -5 8 11 0 29 -3 40 -8z m3150 -8 c-22 -11 -32
-12 -50 -2 -15 8 -38 10 -65 5 -30 -5 -41 -4 -36 4 5 7 39 11 93 10 81 -2 84
-3 58 -17z m-3430 -12 c6 -20 0 -40 -13 -40 -4 0 -8 14 -9 30 -2 34 12 41 22
10z m-7256 -2 c-1 -7 1 -21 6 -31 4 -10 6 -20 3 -22 -5 -5 -45 -13 -71 -14
-10 -1 -22 -11 -27 -23 -9 -23 -9 -23 -9 -1 -1 13 16 36 45 62 51 45 56 47 53
29z m8174 -4 c-7 -3 -9 -18 -6 -40 6 -39 -12 -47 -39 -15 -15 17 -14 20 5 40
12 11 28 21 37 20 9 0 10 -3 3 -5z m-7624 -86 c1 -47 -11 -49 -27 -5 -15 42
-15 55 1 71 10 12 13 10 19 -8 3 -11 6 -38 7 -58z m1521 72 c0 -5 -2 -10 -4
-10 -3 0 -8 5 -11 10 -3 6 -1 10 4 10 6 0 11 -4 11 -10z m4155 1 c7 -12 -31
-25 -46 -15 -8 4 -7 9 2 15 18 11 36 11 44 0z m877 -46 c-2 -14 -8 -23 -12
-20 -10 6 -1 45 10 45 4 0 5 -11 2 -25z m-14302 -6 c0 -5 -4 -9 -10 -9 -5 0
-10 7 -10 16 0 8 5 12 10 9 6 -3 10 -10 10 -16z m7700 -16 c0 -32 -5 -28 -14
10 -4 19 -3 26 4 22 5 -3 10 -18 10 -32z m2893 -8 c90 -26 180 -66 192 -85 4
-6 -10 -3 -32 6 -257 113 -441 119 -680 24 -41 -17 -78 -30 -81 -30 -16 0 58
42 116 65 149 60 324 67 485 20z m4746 6 c9 -6 10 -10 2 -16 -15 -8 -41 1 -41
15 0 12 20 13 39 1z m-9377 -11 c-19 -4 -46 -4 -60 0 -21 6 -13 8 33 8 51 0
55 -1 27 -8z m1185 4 c-3 -3 -12 -4 -19 -1 -8 3 -5 6 6 6 11 1 17 -2 13 -5z
m-160 -30 c-7 -7 -37 7 -37 17 0 6 9 5 21 -1 11 -7 19 -14 16 -16z m1527 17
c3 -5 -6 -16 -20 -26 l-25 -16 16 25 c19 29 21 30 29 17z m3033 3 c-3 -3 -12
-4 -19 -1 -8 3 -5 6 6 6 11 1 17 -2 13 -5z m-44 -11 c-7 -2 -19 -2 -25 0 -7 3
-2 5 12 5 14 0 19 -2 13 -5z m-11618 -23 c3 -5 1 -10 -4 -10 -6 0 -11 5 -11
10 0 6 2 10 4 10 3 0 8 -4 11 -10z m17502 -77 c-3 -3 -11 -2 -17 2 -8 5 -7 11
2 22 12 15 13 14 16 -1 2 -10 1 -20 -1 -23z m-8112 -84 c-9 -13 -38 -11 -58 4
-19 13 -48 87 -40 100 3 5 27 -15 54 -43 27 -28 47 -56 44 -61z m2620 101 c3
-5 -1 -10 -9 -10 -9 0 -16 5 -16 10 0 6 4 10 9 10 6 0 13 -4 16 -10z m9749
-29 c-6 -6 -24 19 -24 34 1 6 7 1 15 -9 8 -11 12 -22 9 -25z m-6604 19 c12 -8
11 -10 -7 -10 -13 0 -23 5 -23 10 0 13 11 13 30 0z m6560 -87 c0 -20 -25 -15
-47 10 -29 31 -45 65 -37 78 7 12 84 -69 84 -88z m260 87 c0 -5 -8 -10 -17
-10 -15 0 -16 2 -3 10 19 12 20 12 20 0z m-17447 -7 c-7 -2 -19 -2 -25 0 -7 3
-2 5 12 5 14 0 19 -2 13 -5z m293 0 c-11 -11 -46 -14 -46 -3 0 6 12 10 27 10
14 0 23 -3 19 -7z m1268 -14 c16 -5 42 -9 57 -9 15 0 31 -5 34 -10 4 -6 -15
-10 -49 -10 -31 0 -56 -4 -56 -9 0 -15 -49 -19 -61 -5 -6 8 -15 12 -19 9 -10
-6 -62 15 -72 30 -4 5 -3 12 3 15 13 8 128 1 163 -11z m2565 -3 c5 -4 12 2 14
11 4 14 5 13 6 -4 1 -21 -4 -23 -44 -23 -38 0 -45 3 -45 19 0 17 4 18 30 11
16 -5 34 -11 39 -14z m1291 10 c-8 -8 -47 -28 -86 -45 -69 -30 -73 -30 -199
-26 -70 3 -130 7 -133 10 -3 3 47 5 110 5 116 0 201 17 283 55 38 18 43 18 25
1z m1060 10 c0 -3 -4 -8 -10 -11 -5 -3 -10 -1 -10 4 0 6 5 11 10 11 6 0 10 -2
10 -4z m4447 -12 c7 -20 -23 -48 -43 -40 -18 7 -18 8 -1 17 9 6 17 17 17 25 0
17 21 15 27 -2z m2290 10 c-3 -3 -12 -4 -19 -1 -8 3 -5 6 6 6 11 1 17 -2 13
-5z m-13072 -14 c-3 -5 -13 -10 -21 -10 -8 0 -14 5 -14 10 0 6 9 10 21 10 11
0 17 -4 14 -10z m2501 -1 c3 -6 2 -15 -4 -21 -13 -13 -94 3 -100 20 -5 15 94
17 104 1z m6224 7 c0 -1 -5 -17 -11 -35 -10 -28 -13 -30 -24 -15 -10 14 -9 21
4 36 14 16 31 24 31 14z m-7563 -22 c24 -3 34 -12 42 -36 15 -42 6 -47 -27
-15 -31 29 -98 48 -148 40 -18 -3 -46 -2 -61 3 l-28 8 35 7 c34 6 120 3 187
-7z m9263 6 c-8 -5 -26 -9 -40 -9 -23 1 -23 2 5 9 43 11 52 11 35 0z m274 4
c26 -10 18 -23 -14 -22 -31 1 -40 12 -17 21 6 3 13 6 14 6 1 1 8 -2 17 -5z
m2219 -55 c2 -9 -2 -16 -9 -16 -8 0 -14 8 -14 18 0 10 -4 21 -10 24 -5 3 -10
14 -10 23 0 13 5 11 20 -8 10 -14 21 -32 23 -41z m-5725 44 c-10 -2 -26 -2
-35 0 -10 3 -2 5 17 5 19 0 27 -2 18 -5z m3097 -17 c-53 -25 -104 -43 -94 -32
16 17 97 55 119 55 19 0 14 -5 -25 -23z m4525 8 c0 -14 -3 -14 -15 -4 -8 7
-15 14 -15 16 0 2 7 4 15 4 8 0 15 -7 15 -16z m693 -4 c5 -4 -2 -17 -14 -29
l-23 -21 -14 25 c-7 14 -10 30 -7 36 7 10 43 3 58 -11z m781 -14 c34 -19 70
-36 81 -39 11 -2 2 -5 -20 -6 -23 0 -58 8 -80 19 -21 11 -43 16 -49 12 -37
-28 -266 -47 -266 -23 0 5 24 9 53 9 47 0 158 30 197 53 21 12 16 13 84 -25z
m-21127 9 c7 -21 2 -25 -24 -19 -13 4 -20 11 -16 20 7 19 32 18 40 -1z m5277
5 c-16 -16 -78 -23 -120 -15 -57 10 -22 25 61 25 47 0 66 -3 59 -10z m3403 -6
c3 -8 12 -13 19 -10 9 3 14 -1 14 -12 0 -10 5 -23 12 -30 27 -27 -19 -11 -50
18 -18 16 -40 34 -50 39 -14 9 -11 10 16 11 21 0 35 -6 39 -16z m2998 2 c-11
-8 -56 -17 -100 -20 -66 -5 -75 -4 -55 6 22 10 90 22 155 27 19 1 19 1 0 -13z
m245 -2 c-70 -18 -188 -30 -177 -18 10 11 136 31 192 32 39 0 39 0 -15 -14z
m5760 6 c0 -5 -4 -10 -10 -10 -5 0 -10 5 -10 10 0 6 5 10 10 10 6 0 10 -4 10
-10z m-8720 -36 c0 -16 -36 -19 -45 -4 -4 6 -1 17 5 26 14 16 40 2 40 -22z
m4405 25 c-7 -11 -145 -12 -145 -1 0 4 34 8 75 9 44 1 73 -2 70 -8z m-10666
-3 c-10 -9 -139 -15 -134 -6 3 6 36 10 72 10 37 0 64 -2 62 -4z m2059 -3 c-10
-2 -28 -2 -40 0 -13 2 -5 4 17 4 22 1 32 -1 23 -4z m10470 0 c-10 -2 -26 -2
-35 0 -10 3 -2 5 17 5 19 0 27 -2 18 -5z m-14743 -13 c-3 -5 -10 -10 -16 -10
-5 0 -9 5 -9 10 0 6 7 10 16 10 8 0 12 -4 9 -10z m4369 4 c9 -3 16 -13 16 -20
0 -12 -4 -12 -20 -4 -11 6 -20 15 -20 20 0 12 3 12 24 4z m1492 -3 c-4 -5 -18
-8 -32 -6 -15 1 -28 -3 -31 -11 -5 -12 -33 -21 -33 -10 0 2 -2 11 -5 18 -4 10
8 14 50 16 33 1 54 -2 51 -7z m312 -10 c4 -11 -2 -12 -24 -7 -45 11 -55 28
-15 24 19 -2 37 -9 39 -17z m2177 9 c-3 -5 -10 -10 -16 -10 -5 0 -9 5 -9 10 0
6 7 10 16 10 8 0 12 -4 9 -10z m395 0 c0 -5 -7 -7 -15 -4 -8 4 -15 8 -15 10 0
2 7 4 15 4 8 0 15 -4 15 -10z m-2480 -15 c-8 -9 -23 -14 -39 -11 -14 2 -30 5
-36 6 -18 3 30 19 59 19 24 1 27 -1 16 -14z m3670 0 c-7 -8 -20 -15 -29 -15
-11 1 -8 5 9 15 32 18 35 18 20 0z m3225 5 c16 -7 13 -9 -17 -9 -21 -1 -38 4
-38 9 0 12 27 12 55 0z m4565 0 c0 -5 -8 -10 -17 -10 -15 0 -16 2 -3 10 19 12
20 12 20 0z m-15760 -9 c0 -16 -19 -23 -40 -16 -30 10 -24 25 10 25 17 0 30
-4 30 -9z m3948 -3 c-3 -7 -13 -15 -24 -17 -16 -3 -17 -1 -5 13 16 19 34 21
29 4z m13362 2 c0 -5 -7 -7 -15 -4 -8 4 -15 8 -15 10 0 2 7 4 15 4 8 0 15 -4
15 -10z m860 0 c11 -7 7 -10 -18 -10 -20 0 -31 4 -27 10 8 13 26 13 45 0z
m-18470 -10 c0 -5 -10 -10 -22 -10 -19 0 -20 2 -8 10 19 13 30 13 30 0z m85 0
c4 -6 -6 -10 -22 -10 -22 0 -25 2 -13 10 19 12 27 12 35 0z m11538 3 c-7 -2
-21 -2 -30 0 -10 3 -4 5 12 5 17 0 24 -2 18 -5z m4084 1 c-3 -3 -12 -4 -19 -1
-8 3 -5 6 6 6 11 1 17 -2 13 -5z m-14680 -10 c-3 -3 -12 -4 -19 -1 -8 3 -5 6
6 6 11 1 17 -2 13 -5z"/>
<path d="M12033 1215 c3 -19 13 -45 21 -57 16 -22 16 -22 16 9 0 40 -16 83
-31 83 -8 0 -10 -12 -6 -35z"/>
<path d="M11836 1088 l-26 -35 8 -158 c8 -148 9 -159 31 -176 13 -11 35 -19
49 -19 l25 0 -7 171 c-6 156 -9 175 -30 211 l-24 40 -26 -34z"/>
<path d="M12766 540 c4 -74 8 -157 9 -184 l3 -50 53 -13 c28 -7 53 -12 55 -10
3 3 -103 343 -117 372 -6 13 -7 -28 -3 -115z"/>
<path d="M10567 793 c-3 -4 -8 -40 -12 -79 -8 -82 -1 -93 45 -69 34 17 43 42
38 106 -3 41 -5 44 -35 47 -17 2 -33 -1 -36 -5z"/>
<path d="M21891 654 c0 -11 3 -14 6 -6 3 7 2 16 -1 19 -3 4 -6 -2 -5 -13z"/>
<path d="M11562 500 c0 -19 2 -27 5 -17 2 9 2 25 0 35 -3 9 -5 1 -5 -18z"/>
<path d="M1010 212 c0 -15 28 -47 35 -40 11 11 -5 48 -21 48 -8 0 -14 -4 -14
-8z"/>
<path d="M10743 1383 c9 -2 23 -2 30 0 6 3 -1 5 -18 5 -16 0 -22 -2 -12 -5z"/>
<path d="M11100 1370 c0 -11 6 -20 14 -20 7 0 16 9 19 20 4 15 0 20 -14 20
-12 0 -19 -7 -19 -20z"/>
<path d="M11176 1374 c-8 -20 10 -44 33 -44 9 0 36 14 60 30 l44 30 -65 0
c-52 0 -67 -4 -72 -16z"/>
<path d="M11296 1360 c-16 -15 -54 -36 -83 -45 -40 -13 -57 -24 -64 -42 -11
-30 -11 -33 0 -33 5 0 12 9 16 19 3 10 14 21 25 24 23 6 17 -13 -16 -58 -30
-39 -64 -185 -65 -278 -1 -54 -3 -65 -9 -42 -5 19 -8 -18 -8 -95 0 -71 3 -114
8 -100 7 25 7 25 11 -5 2 -18 10 -30 19 -30 12 0 16 17 18 80 2 44 7 84 11 88
5 5 32 11 61 12 42 3 50 1 41 -9 -6 -8 -8 -22 -5 -32 6 -17 5 -17 -10 1 -9 11
-4 -7 12 -40 31 -67 57 -112 48 -82 -7 23 20 23 33 0 19 -35 22 -4 3 34 -11
21 -25 55 -31 75 -11 34 -10 41 10 70 17 24 25 52 30 112 3 45 16 108 27 140
14 37 22 83 22 123 0 59 -1 63 -19 54 -34 -19 -65 -100 -67 -176 -1 -38 -5
-103 -10 -144 -9 -96 -25 -113 -97 -109 l-52 3 0 87 c0 55 5 92 13 100 6 6 12
20 12 29 0 33 49 124 77 142 15 11 42 41 58 69 17 27 38 58 48 69 17 18 17 19
-10 18 -17 0 -40 -12 -57 -29z"/>
<path d="M11570 1359 c0 -17 -4 -38 -9 -48 -5 -9 -12 -73 -15 -141 -3 -75 -10
-126 -17 -131 -14 -8 -24 -89 -15 -124 5 -21 12 -26 34 -23 l27 3 1 110 c0 61
5 131 12 155 14 58 22 199 10 206 -4 3 -6 10 -3 15 4 5 -1 9 -9 9 -11 0 -16
-10 -16 -31z"/>
<path d="M10775 1373 c-11 -3 -31 -14 -44 -24 -13 -11 -32 -19 -41 -19 -38 0
-154 -43 -171 -63 -18 -22 -18 -23 18 -55 20 -18 39 -31 44 -30 4 2 28 32 54
66 61 84 71 72 11 -13 -49 -70 -54 -85 -32 -85 14 0 82 69 111 114 10 15 42
43 72 63 39 26 51 38 41 44 -14 9 -31 10 -63 2z"/>
<path d="M11351 1324 c-31 -40 -25 -52 9 -19 17 16 30 32 30 37 0 16 -19 7
-39 -18z"/>
<path d="M11759 1317 c-38 -47 -59 -92 -59 -124 l0 -28 15 29 c8 15 15 33 15
38 0 5 13 28 28 51 40 59 44 67 35 67 -4 0 -20 -15 -34 -33z"/>
<path d="M10746 1264 c-20 -19 -20 -25 -2 -18 8 3 17 12 20 20 7 18 1 18 -18
-2z"/>
<path d="M11505 1196 c-49 -74 -58 -124 -61 -321 -2 -104 -1 -184 2 -177 5 10
10 9 25 -4 18 -17 19 -15 19 57 0 81 9 99 48 99 37 0 60 17 82 62 24 49 25 87
5 114 -13 17 -14 13 -15 -49 0 -81 -10 -103 -50 -112 -62 -14 -70 -3 -70 89 0
48 6 98 14 117 14 34 30 149 21 149 -2 0 -12 -11 -20 -24z"/>
<path d="M10280 1175 c-7 -8 -8 -15 -2 -15 5 0 15 7 22 15 7 8 8 15 2 15 -5 0
-15 -7 -22 -15z"/>
<path d="M11221 1136 c-7 -8 -15 -30 -18 -50 -3 -20 -10 -39 -14 -42 -5 -3 -9
-37 -9 -75 l0 -70 43 3 42 3 0 85 c1 86 -11 160 -25 160 -4 0 -13 -6 -19 -14z"/>
<path d="M10592 1072 c2 -11 -2 -25 -8 -33 -7 -8 -13 -43 -15 -79 l-4 -65 30
0 c21 0 33 7 42 25 17 34 16 101 -3 138 -17 35 -47 44 -42 14z"/>
<path d="M10938 653 c7 -3 16 -2 19 1 4 3 -2 6 -13 5 -11 0 -14 -3 -6 -6z"/>
<path d="M2647 3 c18 -2 50 -2 70 0 21 2 7 4 -32 4 -38 0 -55 -2 -38 -4z"/>
</g>
</svg>
