<?xml version="1.0" encoding="UTF-8" standalone="no"?>
<!DOCTYPE svg PUBLIC "-//W3C//DTD SVG 1.1//EN" "http://www.w3.org/Graphics/SVG/1.1/DTD/svg11.dtd">
<svg width="100%" height="100%" viewBox="0 0 300 171" version="1.1" xmlns="http://www.w3.org/2000/svg" xmlns:xlink="http://www.w3.org/1999/xlink" xml:space="preserve" xmlns:serif="http://www.serif.com/" style="fill-rule:evenodd;clip-rule:evenodd;stroke-linejoin:round;stroke-miterlimit:2;">
    <g transform="matrix(0.106007,1.37806e-33,1.763e-33,-0.106007,-9.24722,178.753)">
        <path d="M1508,1663C1515,1660 1524,1661 1527,1664C1531,1667 1525,1670 1514,1669C1503,1669 1500,1666 1508,1663Z" style="fill:white;fill-rule:nonzero;"/>
        <path d="M1421,1633C1405,1617 1389,1595 1385,1582C1379,1561 1380,1561 1404,1571C1418,1578 1427,1587 1424,1592C1421,1596 1414,1598 1409,1594C1403,1591 1404,1597 1411,1608C1418,1620 1431,1626 1444,1623C1464,1620 1464,1620 1445,1628C1427,1636 1428,1638 1455,1648C1472,1654 1478,1659 1468,1659C1458,1660 1437,1648 1421,1633Z" style="fill:white;fill-rule:nonzero;"/>
        <path d="M1555,1650C1570,1644 1561,1641 1520,1639L1465,1637L1565,1623L1465,1617L1510,1610C1550,1603 1548,1603 1493,1605C1458,1606 1433,1604 1436,1599C1439,1594 1474,1589 1513,1588L1585,1586L1525,1583C1444,1579 1423,1573 1423,1555C1423,1547 1428,1540 1433,1540C1439,1540 1441,1538 1438,1535C1428,1525 1400,1542 1407,1554C1411,1561 1410,1562 1402,1555C1397,1550 1390,1536 1387,1525C1383,1508 1382,1509 1381,1530C1380,1560 1332,1588 1317,1567C1311,1559 1310,1560 1314,1572C1323,1601 1221,1633 1135,1627C1055,1622 999,1602 1025,1588C1033,1583 1040,1572 1040,1565C1040,1548 1024,1545 1015,1560C1004,1577 992,1561 998,1538C1002,1520 1000,1518 982,1522C965,1527 961,1524 963,1506C964,1492 959,1485 948,1485C939,1485 928,1481 924,1477C920,1473 922,1470 928,1470C935,1470 940,1463 940,1455C940,1447 931,1440 920,1440C909,1440 900,1446 900,1454C900,1472 946,1540 979,1569C1005,1592 1005,1592 971,1568C952,1554 925,1521 911,1494C897,1467 885,1444 885,1443C885,1442 826,1453 780,1464C758,1470 758,1469 783,1459C798,1453 810,1444 810,1439C810,1433 815,1432 821,1436C831,1442 850,1424 850,1408C850,1392 831,1401 827,1418C823,1431 822,1430 821,1413C821,1401 816,1389 811,1386C807,1383 805,1391 807,1403C812,1428 798,1444 763,1453C735,1459 726,1446 725,1397C724,1348 747,1331 817,1327C863,1325 867,1323 858,1307C853,1297 842,1291 834,1294C826,1297 820,1293 820,1284C820,1276 812,1266 803,1263C793,1259 781,1251 777,1243C773,1236 762,1230 754,1230C746,1230 740,1223 742,1213C744,1202 736,1194 720,1190C704,1186 699,1182 707,1177C724,1167 712,1140 694,1147C682,1151 680,1147 686,1126C691,1106 688,1100 676,1100C664,1100 661,1094 666,1075C671,1055 668,1050 654,1049C643,1049 640,1046 648,1043C663,1037 664,1000 648,1000C639,1000 639,997 648,988C663,973 664,940 649,940C643,940 646,933 654,924C673,906 675,890 658,890C652,890 654,884 664,877C675,869 681,857 678,849C675,841 679,831 686,825C692,820 701,804 705,792C717,752 679,769 653,815C627,861 622,855 647,807C656,789 663,772 662,768C661,763 673,760 690,760C710,760 723,753 731,738C742,716 742,716 725,730C715,738 706,744 706,742C705,740 692,744 676,750C650,760 643,758 621,736C601,715 598,708 608,698C619,687 620,688 615,700C611,711 617,715 635,716C649,717 657,714 654,709C651,704 654,700 659,700C679,700 670,672 649,667C632,662 630,658 640,641C651,620 637,610 625,630C621,636 614,638 609,635C593,625 630,578 753,454L872,333L835,284C814,257 785,228 770,219C734,197 712,164 704,123C699,94 694,90 668,90C649,90 640,86 642,78C648,61 2358,59 2363,75C2364,81 2354,87 2340,89C2311,93 2300,106 2300,139C2300,155 2284,178 2255,206C2212,246 2160,313 2160,328C2160,332 2210,385 2270,445C2436,610 2464,674 2399,739C2382,756 2359,770 2348,770C2337,770 2313,782 2296,798L2264,825L2299,845C2351,875 2380,932 2380,1004C2380,1080 2356,1130 2289,1195L2238,1244L2245,1307C2258,1432 2216,1532 2127,1584C2083,1610 1988,1631 1991,1614C1997,1581 1986,1573 1960,1590C1947,1599 1947,1601 1960,1610C1972,1618 1969,1620 1947,1620C1929,1620 1921,1616 1926,1609C1930,1602 1926,1600 1913,1604C1891,1611 1828,1588 1791,1559C1778,1549 1758,1540 1746,1539C1735,1539 1730,1536 1737,1534C1753,1527 1742,1500 1723,1500C1712,1500 1709,1507 1712,1525C1717,1548 1714,1550 1684,1550C1656,1550 1650,1554 1640,1585C1627,1625 1587,1660 1556,1659C1535,1659 1535,1658 1555,1650ZM1222,1614C1240,1610 1247,1604 1243,1594C1236,1575 1210,1576 1210,1595C1210,1603 1206,1610 1200,1610C1195,1610 1190,1606 1190,1600C1190,1586 1162,1588 1158,1602C1155,1611 1148,1609 1135,1596C1117,1578 1116,1578 1103,1596C1090,1613 1089,1613 1086,1588C1084,1570 1066,1568 1045,1584C1026,1597 1027,1599 1060,1608C1101,1619 1183,1622 1222,1614ZM2050,1595C2050,1579 2023,1563 2013,1573C2010,1577 2010,1586 2013,1595C2021,1615 2050,1615 2050,1595ZM1288,1582C1290,1575 1285,1570 1276,1570C1267,1570 1260,1577 1260,1586C1260,1603 1282,1600 1288,1582ZM2117,1579C2149,1559 2150,1557 2134,1539C2114,1517 2100,1523 2100,1553C2100,1569 2097,1572 2091,1561C2079,1543 2061,1555 2063,1580C2065,1605 2074,1605 2117,1579ZM1939,1584C1974,1577 1980,1556 1950,1540C1934,1531 1928,1532 1924,1544C1921,1552 1921,1564 1925,1569C1928,1576 1925,1577 1916,1574C1907,1571 1900,1562 1900,1554C1900,1534 1870,1537 1853,1558C1841,1574 1840,1573 1842,1550C1846,1518 1816,1515 1812,1547C1809,1565 1816,1571 1842,1579C1884,1591 1900,1592 1939,1584ZM1458,1382C1455,1280 1453,1265 1438,1262C1422,1259 1420,1269 1420,1374C1420,1470 1423,1490 1435,1490C1446,1490 1450,1502 1452,1533L1453,1575L1457,1537C1459,1517 1460,1447 1458,1382ZM1550,1520C1550,1482 1546,1470 1535,1470C1523,1470 1520,1452 1520,1370C1520,1310 1516,1270 1510,1270C1504,1270 1500,1310 1500,1370C1500,1452 1497,1470 1485,1470C1474,1470 1470,1482 1470,1520L1470,1570L1550,1570L1550,1520ZM2007,1549C2021,1535 1992,1501 1973,1508C1957,1513 1956,1532 1972,1548C1987,1563 1993,1563 2007,1549ZM1182,1543C1176,1541 1172,1534 1176,1529C1179,1524 1170,1520 1157,1520C1123,1520 1083,1485 1075,1450C1068,1420 1059,1416 1012,1420C992,1421 989,1418 995,1401C1004,1373 988,1374 971,1403L956,1425L950,1400C943,1378 942,1377 935,1394C926,1415 945,1431 969,1422C978,1419 982,1420 978,1425C958,1447 1029,1522 1088,1540C1117,1549 1203,1552 1182,1543ZM1802,1508C1800,1498 1792,1491 1785,1494C1766,1501 1758,1489 1771,1474C1785,1457 1774,1439 1755,1447C1738,1453 1734,1435 1750,1425C1767,1414 1761,1401 1740,1403C1716,1405 1715,1416 1734,1461C1755,1511 1791,1554 1800,1540C1804,1533 1805,1519 1802,1508ZM1694,1525C1690,1517 1682,1510 1675,1510C1668,1510 1660,1517 1656,1525C1652,1536 1657,1540 1675,1540C1693,1540 1698,1536 1694,1525ZM2176,1529C2179,1523 2176,1514 2169,1509C2155,1501 2157,1499 2182,1496C2202,1494 2202,1472 2181,1461C2164,1451 2159,1454 2144,1486C2129,1516 2129,1523 2141,1531C2160,1543 2167,1542 2176,1529ZM1197,1508C1194,1500 1191,1503 1191,1514C1190,1525 1193,1531 1196,1527C1199,1524 1200,1515 1197,1508ZM1227,1508C1224,1500 1221,1503 1221,1514C1220,1525 1223,1531 1226,1527C1229,1524 1230,1515 1227,1508ZM1292,1514C1320,1500 1321,1497 1306,1488C1294,1481 1285,1481 1277,1489C1262,1504 1247,1503 1256,1488C1260,1482 1259,1480 1252,1483C1244,1489 1243,1506 1249,1528C1251,1533 1262,1529 1292,1514ZM1429,1504C1423,1496 1408,1490 1396,1490C1385,1490 1380,1486 1385,1482C1399,1472 1397,1437 1383,1433C1375,1430 1371,1440 1372,1464C1373,1489 1379,1501 1392,1506C1402,1509 1408,1515 1405,1520C1402,1524 1409,1526 1420,1523C1436,1519 1438,1515 1429,1504ZM2096,1510C2136,1484 2170,1417 2170,1362L2170,1320L2145,1336C2123,1350 2121,1350 2126,1337C2134,1315 2116,1308 2086,1321C2062,1332 2061,1336 2067,1394C2071,1438 2068,1466 2057,1493C2039,1536 2047,1540 2096,1510ZM1971,1484C1987,1465 1991,1392 1977,1383C1971,1380 1964,1382 1962,1388C1960,1395 1954,1397 1948,1394C1943,1391 1931,1395 1922,1404C1880,1443 1844,1467 1831,1462C1823,1459 1827,1469 1841,1483C1854,1497 1874,1510 1885,1512C1911,1517 1955,1503 1971,1484ZM1157,1500C1122,1489 1100,1472 1100,1454C1100,1443 1107,1444 1135,1457C1159,1469 1166,1476 1158,1482C1150,1487 1155,1490 1173,1490C1195,1490 1201,1486 1198,1473C1196,1463 1186,1455 1175,1455C1138,1455 1079,1377 1085,1338C1087,1327 1082,1320 1073,1320C1062,1320 1060,1328 1064,1353C1071,1398 1080,1420 1091,1420C1096,1420 1098,1431 1094,1444C1086,1476 1120,1510 1158,1509L1185,1508L1157,1500ZM2030,1495C2030,1487 2026,1480 2020,1480C2015,1480 2010,1476 2010,1470C2010,1465 2017,1460 2025,1460C2043,1460 2045,1434 2028,1426C2018,1421 2018,1419 2028,1414C2045,1406 2043,1380 2025,1380C2016,1380 2011,1372 2013,1358C2014,1344 2009,1335 2000,1335C1991,1335 1986,1327 1988,1316C1991,1302 1987,1300 1969,1305C1951,1311 1948,1309 1953,1296C1957,1287 1955,1280 1950,1280C1944,1280 1940,1289 1940,1300C1940,1311 1945,1320 1950,1320C1984,1320 2018,1457 1990,1475C1982,1480 1983,1486 1991,1496C2006,1514 2030,1514 2030,1495ZM1345,1480C1335,1469 1319,1460 1308,1460C1288,1460 1287,1459 1296,1436C1299,1427 1308,1420 1316,1420C1324,1420 1330,1416 1330,1410C1330,1390 1303,1401 1291,1426C1278,1456 1284,1470 1309,1470C1319,1470 1333,1477 1340,1485C1347,1493 1355,1500 1358,1500C1361,1500 1355,1491 1345,1480ZM1577,1348C1575,1319 1574,1340 1574,1395C1574,1450 1575,1474 1577,1448C1579,1422 1579,1377 1577,1348ZM1630,1470C1630,1465 1625,1460 1619,1460C1614,1460 1612,1465 1615,1470C1618,1476 1623,1480 1626,1480C1628,1480 1630,1476 1630,1470ZM1217,1448C1214,1440 1211,1443 1211,1454C1210,1465 1213,1471 1216,1467C1219,1464 1220,1455 1217,1448ZM1237,1448C1234,1440 1231,1443 1231,1454C1230,1465 1233,1471 1236,1467C1239,1464 1240,1455 1237,1448ZM1270,1461C1270,1455 1266,1448 1260,1445C1255,1442 1250,1446 1250,1454C1250,1463 1255,1470 1260,1470C1266,1470 1270,1466 1270,1461ZM1667,1448C1664,1440 1661,1443 1661,1454C1660,1465 1663,1471 1666,1467C1669,1464 1670,1455 1667,1448ZM1720,1448C1720,1441 1715,1442 1707,1449C1699,1455 1689,1456 1685,1452C1680,1448 1680,1450 1684,1457C1692,1471 1720,1463 1720,1448ZM1870,1424C1870,1408 1844,1405 1835,1420C1831,1426 1831,1438 1834,1447C1839,1459 1843,1460 1855,1450C1863,1443 1870,1431 1870,1424ZM1483,1279C1479,1274 1477,1312 1480,1363L1485,1455L1488,1371C1490,1325 1487,1283 1483,1279ZM1537,1317C1535,1294 1534,1316 1534,1365C1534,1415 1535,1433 1537,1407C1539,1381 1539,1340 1537,1317ZM1629,1348L1627,1245L1619,1325C1612,1397 1615,1450 1626,1450C1628,1450 1629,1404 1629,1348ZM2210,1437C2210,1430 2205,1419 2198,1412C2189,1403 2190,1400 2203,1400C2223,1400 2226,1374 2208,1367C2198,1363 2199,1359 2210,1351C2222,1343 2222,1340 2207,1334C2195,1330 2191,1321 2195,1311C2199,1301 2198,1299 2192,1305C2187,1311 2180,1345 2177,1383C2171,1445 2172,1450 2190,1450C2201,1450 2210,1444 2210,1437ZM870,1430C870,1425 868,1420 866,1420C863,1420 858,1425 855,1430C852,1436 854,1440 859,1440C865,1440 870,1436 870,1430ZM770,1415C770,1407 766,1400 760,1400C755,1400 750,1407 750,1415C750,1423 755,1430 760,1430C766,1430 770,1423 770,1415ZM913,1410C910,1399 901,1390 894,1390C886,1390 880,1399 880,1410C880,1423 887,1430 899,1430C913,1430 917,1425 913,1410ZM1395,1330C1395,1277 1391,1245 1384,1243C1376,1240 1372,1267 1371,1330C1370,1401 1372,1421 1382,1418C1391,1415 1395,1389 1395,1330ZM1030,1390C1030,1379 1026,1370 1021,1370C1016,1370 1010,1379 1007,1390C1004,1403 1007,1410 1016,1410C1024,1410 1030,1401 1030,1390ZM1064,1395C1060,1387 1057,1380 1055,1380C1053,1380 1050,1387 1046,1395C1043,1404 1046,1410 1055,1410C1064,1410 1067,1404 1064,1395ZM1195,1400C1191,1394 1220,1390 1275,1390C1330,1390 1359,1386 1355,1380C1352,1375 1308,1370 1259,1370C1201,1370 1171,1374 1175,1380C1178,1386 1175,1390 1168,1390C1159,1390 1159,1393 1170,1400C1190,1413 1203,1413 1195,1400ZM1828,1370C1839,1345 1852,1330 1863,1330C1872,1330 1880,1323 1880,1315C1880,1307 1873,1300 1865,1300C1857,1300 1850,1305 1850,1311C1850,1319 1845,1319 1835,1310C1822,1299 1820,1302 1820,1327C1820,1343 1813,1365 1805,1376C1788,1399 1786,1410 1801,1410C1807,1410 1819,1392 1828,1370ZM1894,1394C1904,1368 1901,1350 1886,1350C1878,1350 1869,1359 1865,1370C1854,1404 1881,1427 1894,1394ZM1785,1380C1789,1374 1770,1370 1736,1370C1705,1370 1680,1375 1680,1380C1680,1386 1702,1390 1729,1390C1757,1390 1782,1386 1785,1380ZM755,1352C752,1349 744,1352 737,1359C728,1369 729,1370 743,1364C753,1361 758,1355 755,1352ZM1253,1350C1287,1350 1289,1349 1278,1331C1268,1314 1269,1308 1284,1291C1303,1270 1300,1266 1260,1269C1250,1269 1249,1268 1258,1264C1264,1261 1270,1250 1270,1239C1270,1228 1280,1215 1293,1210C1311,1203 1307,1201 1270,1201C1245,1202 1231,1204 1238,1207C1255,1214 1253,1245 1234,1260C1222,1271 1216,1270 1202,1256C1189,1243 1188,1236 1197,1221C1211,1199 1202,1186 1184,1201C1176,1207 1173,1224 1176,1243C1180,1273 1180,1274 1170,1250C1154,1213 1171,1182 1212,1177L1245,1173L1213,1172C1164,1169 1150,1191 1150,1269C1150,1341 1162,1365 1195,1356C1206,1353 1232,1350 1253,1350ZM1335,1340C1338,1334 1334,1333 1326,1336C1308,1343 1305,1350 1319,1350C1325,1350 1332,1346 1335,1340ZM1745,1340C1749,1334 1740,1330 1725,1330C1710,1330 1701,1334 1705,1340C1708,1346 1717,1350 1725,1350C1733,1350 1742,1346 1745,1340ZM1810,1295C1810,1250 1807,1242 1795,1246C1783,1251 1782,1256 1791,1266C1797,1274 1800,1296 1798,1315C1796,1334 1798,1350 1802,1350C1806,1350 1810,1325 1810,1295ZM905,1308C903,1276 880,1273 880,1304C880,1319 886,1330 893,1330C901,1330 906,1320 905,1308ZM990,1316C990,1314 983,1310 975,1306C967,1303 960,1305 960,1310C960,1316 967,1320 975,1320C983,1320 990,1318 990,1316ZM1694,1303C1689,1286 1689,1286 1700,1303C1714,1324 1730,1325 1730,1305C1730,1297 1726,1290 1721,1290C1716,1290 1705,1287 1696,1284C1684,1280 1680,1284 1680,1299C1680,1311 1684,1320 1690,1320C1695,1320 1697,1312 1694,1303ZM1764,1290C1758,1284 1754,1287 1754,1300C1754,1313 1758,1316 1764,1310C1771,1303 1771,1297 1764,1290ZM1927,1298C1924,1290 1921,1293 1921,1304C1920,1315 1923,1321 1926,1317C1929,1314 1930,1305 1927,1298ZM2185,1290C2206,1268 2211,1257 2203,1249C2196,1242 2186,1241 2175,1248C2163,1254 2161,1259 2169,1264C2187,1276 2181,1292 2161,1285C2140,1279 2125,1294 2135,1310C2145,1326 2154,1322 2185,1290ZM1025,1272C1021,1268 1015,1271 1013,1278C1007,1294 990,1294 990,1277C990,1263 914,1236 899,1245C894,1249 890,1244 890,1236C890,1217 860,1201 840,1208C827,1212 827,1211 838,1198C847,1187 848,1180 840,1175C826,1166 810,1178 810,1196C810,1228 879,1270 970,1294C1018,1306 1025,1306 1028,1293C1030,1285 1029,1275 1025,1272ZM1063,1285C1056,1264 1050,1266 1050,1291C1050,1302 1054,1309 1060,1305C1065,1302 1067,1293 1063,1285ZM1331,1277C1315,1261 1306,1276 1321,1293C1329,1301 1337,1304 1339,1298C1341,1293 1337,1283 1331,1277ZM1140,1291C1140,1281 1116,1270 1094,1270C1086,1270 1080,1277 1080,1285C1080,1295 1090,1300 1110,1300C1127,1300 1140,1296 1140,1291ZM2097,1271C2145,1236 2195,1223 2215,1240C2226,1249 2230,1249 2230,1241C2230,1235 2225,1230 2218,1230C2212,1230 2209,1227 2213,1224C2222,1215 2180,1179 2169,1186C2163,1189 2160,1201 2163,1211C2169,1233 2152,1237 2144,1215C2133,1189 2107,1197 2112,1225C2115,1239 2116,1250 2114,1250C2113,1250 2105,1252 2097,1255C2087,1260 2084,1254 2088,1230C2093,1196 2075,1189 2054,1218C2041,1234 2041,1234 2040,1218C2040,1189 2010,1197 2010,1225C2010,1239 2005,1250 1998,1250C1992,1250 1997,1261 2010,1275C2040,1307 2048,1306 2097,1271ZM1863,1273C1856,1271 1844,1271 1838,1273C1831,1276 1836,1278 1850,1278C1864,1278 1869,1276 1863,1273ZM1733,1263C1726,1261 1714,1261 1708,1263C1701,1266 1706,1268 1720,1268C1734,1268 1739,1266 1733,1263ZM1470,1230C1474,1230 1476,1221 1473,1210C1468,1193 1473,1190 1503,1190C1546,1190 1600,1180 1600,1171C1600,1168 1567,1164 1528,1163C1488,1163 1442,1160 1425,1157C1409,1154 1392,1151 1389,1151C1385,1150 1380,1135 1378,1116L1374,1082L1406,1115C1423,1134 1450,1152 1464,1156C1504,1166 1580,1155 1598,1136C1620,1114 1606,1105 1578,1124C1566,1133 1538,1140 1517,1140C1439,1140 1390,1090 1390,1011C1390,958 1436,904 1488,894C1536,885 1603,919 1624,965C1644,1006 1644,1021 1626,1065C1610,1102 1622,1114 1640,1081C1656,1049 1652,978 1630,943C1571,846 1432,850 1382,951C1367,980 1360,988 1360,974C1360,963 1371,939 1385,920C1415,880 1415,876 1392,882C1382,885 1368,880 1360,871C1347,857 1345,870 1342,985C1341,1056 1342,1121 1346,1129C1350,1138 1352,1161 1351,1181C1349,1213 1352,1218 1387,1233C1444,1257 1455,1258 1458,1243C1460,1236 1465,1230 1470,1230ZM1550,1250C1550,1245 1532,1240 1510,1240C1488,1240 1470,1245 1470,1250C1470,1256 1488,1260 1510,1260C1532,1260 1550,1256 1550,1250ZM1695,1250C1698,1245 1696,1240 1691,1240C1685,1240 1680,1245 1680,1250C1680,1256 1682,1260 1684,1260C1687,1260 1692,1256 1695,1250ZM1856,1240C1856,1229 1851,1220 1845,1220C1840,1220 1842,1215 1850,1210C1862,1202 1863,1198 1852,1191C1841,1184 1841,1182 1854,1177C1883,1166 1873,1140 1839,1140C1810,1140 1808,1142 1815,1168C1820,1183 1823,1210 1823,1228C1822,1251 1827,1260 1839,1260C1849,1260 1856,1252 1856,1240ZM1920,1218C1920,1208 1916,1200 1910,1200C1905,1200 1900,1215 1900,1233C1900,1257 1903,1261 1910,1250C1915,1242 1920,1227 1920,1218ZM1115,1239C1126,1223 1112,1216 1096,1229C1084,1239 1082,1238 1087,1221C1091,1206 1088,1200 1076,1200C1067,1200 1060,1202 1060,1204C1060,1206 1057,1215 1054,1223C1046,1244 1103,1259 1115,1239ZM1600,1240C1600,1235 1596,1230 1591,1230C1585,1230 1578,1235 1575,1240C1572,1246 1576,1250 1584,1250C1593,1250 1600,1246 1600,1240ZM1981,1209C1972,1187 1971,1187 1971,1206C1970,1217 1973,1230 1977,1233C1989,1245 1991,1233 1981,1209ZM1036,1213C1033,1194 1010,1182 1010,1199C1010,1205 1006,1210 1000,1210C995,1210 990,1203 990,1195C990,1178 974,1175 965,1190C961,1196 954,1198 949,1194C944,1191 942,1185 945,1180C948,1175 946,1169 941,1166C936,1162 929,1164 925,1170C916,1185 900,1172 906,1156C912,1139 894,1125 885,1140C874,1157 861,1142 867,1119C872,1101 870,1099 851,1105C832,1111 830,1109 836,1086C841,1063 839,1060 816,1060C787,1060 783,1071 805,1094C813,1102 820,1112 820,1116C820,1138 934,1214 981,1223C1029,1232 1038,1230 1036,1213ZM1764,1198C1770,1194 1757,1191 1735,1192C1712,1192 1705,1195 1718,1197C1730,1199 1740,1209 1741,1218C1741,1232 1743,1232 1747,1220C1750,1212 1758,1202 1764,1198ZM1600,1206C1594,1198 1582,1194 1574,1197C1551,1206 1558,1220 1586,1220C1608,1220 1610,1218 1600,1206ZM2270,1188C2291,1173 2298,1161 2294,1148C2290,1135 2293,1132 2303,1136C2311,1139 2320,1134 2324,1123C2328,1113 2326,1104 2321,1102C2315,1100 2310,1094 2310,1089C2310,1083 2315,1082 2321,1086C2340,1098 2350,1067 2332,1053C2316,1042 2316,1041 2333,1040C2342,1040 2350,1035 2350,1029C2350,1022 2342,1011 2333,1004C2316,991 2316,991 2333,990C2354,990 2356,960 2335,960C2326,960 2321,952 2323,938C2324,924 2319,915 2310,915C2302,915 2295,908 2295,900C2295,892 2287,885 2277,885C2267,885 2255,879 2250,871C2243,859 2239,859 2226,873C2214,884 2213,890 2223,893C2229,896 2225,899 2213,899C2201,900 2183,903 2173,907C2160,911 2162,907 2179,893L2204,873L2171,868C2154,865 2137,867 2134,872C2131,877 2125,878 2120,875C2115,872 2109,874 2105,880C2102,885 2111,895 2125,900C2146,908 2150,913 2141,923C2133,934 2136,936 2158,932C2200,926 2257,954 2280,992L2300,1025L2300,992C2300,968 2291,950 2271,929C2255,913 2245,900 2250,900C2254,900 2270,914 2285,932C2310,961 2312,970 2307,1023C2304,1056 2297,1087 2291,1093C2285,1099 2280,1112 2280,1122C2280,1132 2274,1139 2268,1138C2260,1136 2255,1146 2255,1162C2256,1186 2254,1188 2240,1175C2218,1155 2210,1156 2210,1178C2210,1216 2229,1219 2270,1188ZM796,1184C793,1176 794,1172 800,1175C824,1190 822,1144 797,1099C782,1073 770,1046 770,1039C770,1028 772,1028 778,1038C789,1054 820,1043 820,1023C820,1012 812,1009 790,1012C760,1017 760,1016 761,971C763,926 763,925 769,961C774,994 777,997 798,989C823,980 828,960 805,960C797,960 790,956 790,950C790,945 796,940 804,940C812,940 820,933 824,925C827,917 825,910 820,910C814,910 810,906 810,900C810,895 816,890 824,890C846,890 854,871 840,855C820,831 810,837 789,883C771,922 770,922 775,893C781,861 781,860 746,860C716,860 709,864 703,888C690,932 696,1042 713,1080C739,1140 816,1236 796,1184ZM1107,1178C1104,1170 1101,1173 1101,1184C1100,1195 1103,1201 1106,1197C1109,1194 1110,1185 1107,1178ZM1912,1153C1907,1094 1902,1090 1901,1143C1900,1169 1904,1190 1908,1190C1912,1190 1914,1173 1912,1153ZM2140,1165C2140,1152 2110,1103 2095,1090C2082,1079 2076,1081 2055,1100C2031,1123 2023,1150 2037,1163C2045,1171 2140,1172 2140,1165ZM2134,1102C2105,1073 2105,1074 2135,1134C2152,1168 2155,1170 2158,1151C2160,1137 2151,1119 2134,1102ZM1633,1145C1630,1136 1625,1131 1623,1134C1620,1137 1621,1143 1625,1149C1634,1165 1640,1162 1633,1145ZM1800,1160L1800,1083L1759,1090C1699,1101 1685,1120 1738,1120C1769,1120 1780,1124 1780,1135C1780,1143 1776,1150 1770,1150C1765,1150 1760,1147 1760,1143C1760,1138 1744,1134 1725,1133C1699,1131 1690,1134 1690,1145C1690,1157 1703,1160 1745,1160L1800,1160ZM1025,1135C980,1103 979,1101 982,1012C985,933 987,924 1008,915C1020,910 1030,902 1030,898C1030,884 1014,889 986,911C962,930 960,937 960,1014C960,1083 964,1102 981,1124C992,1138 1011,1150 1023,1150C1045,1149 1045,1149 1025,1135ZM1263,1143C1256,1141 1250,1130 1250,1119C1250,1109 1256,1099 1263,1098C1269,1098 1253,1094 1225,1091L1175,1085L1163,995L1162,1037C1161,1060 1156,1082 1150,1085C1145,1088 1140,1086 1140,1079C1140,1071 1136,1071 1125,1080C1107,1095 1103,1085 1097,1025C1094,990 1093,992 1092,1038C1089,1109 1070,1096 1070,1024C1070,965 1071,964 1152,970C1166,971 1181,967 1184,962C1187,957 1177,955 1162,958C1147,961 1138,959 1142,955C1146,950 1145,941 1139,934C1133,926 1131,912 1134,903C1140,888 1139,887 1128,898C1118,908 1118,915 1127,929C1137,944 1136,949 1125,954C1117,957 1108,954 1104,948C1100,942 1101,939 1106,942C1111,946 1115,930 1116,908C1116,866 1108,877 1095,933C1092,948 1085,958 1080,955C1074,951 1072,944 1075,939C1079,934 1076,930 1070,930C1062,930 1060,956 1062,1014C1064,1060 1062,1096 1058,1093C1053,1091 1050,1052 1049,1007C1049,950 1046,932 1040,947C1034,962 1025,967 1011,963C991,958 990,962 990,1029C990,1088 993,1102 1008,1107C1017,1111 1031,1122 1038,1132C1049,1148 1066,1150 1163,1149C1225,1149 1269,1146 1263,1143ZM1310,1140C1310,1135 1303,1133 1295,1136C1287,1140 1280,1144 1280,1146C1280,1148 1287,1150 1295,1150C1303,1150 1310,1146 1310,1140ZM1334,1133C1330,1123 1324,1079 1321,1035C1319,985 1315,964 1311,980C1305,1002 1300,1004 1257,1001C1228,1000 1210,1003 1210,1009C1210,1015 1230,1020 1255,1020C1284,1020 1300,1024 1300,1033C1300,1041 1286,1044 1255,1042C1227,1039 1210,1042 1210,1049C1210,1055 1229,1060 1255,1060C1293,1060 1300,1063 1300,1079C1300,1090 1297,1100 1293,1103C1288,1105 1290,1106 1297,1104C1303,1103 1311,1112 1314,1126C1318,1139 1325,1150 1331,1150C1338,1150 1339,1143 1334,1133ZM1586,1099C1613,1074 1627,1018 1614,989C1607,974 1605,980 1605,1014C1605,1074 1572,1110 1518,1110C1496,1110 1470,1105 1458,1099C1432,1085 1410,1032 1417,997C1424,961 1474,920 1511,920C1540,920 1541,921 1534,955C1529,985 1530,990 1547,990C1574,990 1606,955 1589,944C1581,939 1579,941 1585,951C1590,959 1582,953 1567,938C1525,893 1455,905 1420,962C1396,1001 1395,1031 1415,1070C1447,1131 1536,1146 1586,1099ZM1837,1124C1834,1121 1825,1120 1818,1123C1810,1126 1813,1129 1824,1129C1835,1130 1841,1127 1837,1124ZM2038,1108C2045,1101 2050,1090 2050,1082C2050,1072 2047,1072 2034,1084C2026,1093 2010,1100 1999,1100C1989,1100 1980,1105 1980,1110C1980,1124 2023,1123 2038,1108ZM1850,1106C1850,1104 1841,1100 1830,1097C1819,1094 1812,1096 1816,1101C1821,1110 1850,1114 1850,1106ZM2220,1078C2220,1044 2196,1010 2171,1009C2161,1009 2159,1007 2168,1003C2188,995 2182,970 2160,970C2149,970 2140,977 2140,986C2140,994 2136,998 2130,995C2125,992 2120,994 2120,999C2120,1005 2127,1010 2135,1010C2143,1010 2149,1013 2148,1018C2145,1027 2203,1109 2213,1110C2217,1110 2220,1096 2220,1078ZM2255,1062C2260,1037 2258,1029 2245,1024C2236,1020 2231,1012 2234,1005C2238,993 2221,980 2199,980C2183,980 2189,1005 2210,1023C2223,1034 2230,1052 2230,1077C2230,1120 2244,1111 2255,1062ZM902,1072C884,1066 887,1050 906,1050C919,1050 920,1047 910,1035C904,1027 901,1016 905,1010C908,1005 905,1000 896,1000C888,1000 880,1003 877,1008C875,1012 875,1009 877,1001C879,994 872,981 863,973C853,965 862,968 883,979C932,1006 950,1006 943,979C940,967 932,961 924,964C916,967 910,963 910,956C910,940 883,927 867,937C860,941 859,937 863,926C867,915 866,911 859,915C853,919 851,928 854,935C856,942 854,952 849,957C838,968 848,1030 861,1030C866,1030 870,1038 870,1048C870,1071 890,1091 904,1083C910,1079 910,1075 902,1072ZM1490,1073C1490,1063 1483,1047 1476,1038C1464,1022 1462,1022 1450,1044C1435,1072 1443,1090 1471,1090C1483,1090 1490,1083 1490,1073ZM1860,1020C1860,957 1858,950 1840,950C1822,950 1820,957 1820,1013C1820,1079 1824,1090 1847,1090C1857,1090 1860,1072 1860,1020ZM1920,1075C1920,1067 1916,1060 1910,1060C1905,1060 1900,1067 1900,1075C1900,1083 1905,1090 1910,1090C1916,1090 1920,1083 1920,1075ZM1914,978C1911,938 1906,903 1904,901C1902,899 1900,931 1900,973C1900,1021 1904,1050 1911,1050C1918,1050 1919,1026 1914,978ZM2013,1023C2000,988 1960,977 1960,1008C1960,1033 1969,1040 1996,1040C2014,1040 2018,1036 2013,1023ZM2094,1018C2091,1014 2085,1010 2079,1010C2074,1010 2070,1014 2070,1018C2070,1023 2077,1027 2085,1027C2093,1027 2097,1023 2094,1018ZM937,1014C934,1011 925,1010 918,1013C910,1016 913,1019 924,1019C935,1020 941,1017 937,1014ZM1773,993C1766,991 1752,991 1743,993C1733,996 1739,998 1755,998C1772,998 1779,996 1773,993ZM1254,972C1256,968 1247,960 1234,953C1208,941 1202,948 1222,968C1236,982 1247,983 1254,972ZM1778,973C1768,971 1750,971 1738,973C1725,975 1733,977 1755,977C1777,978 1787,976 1778,973ZM1773,953C1766,951 1752,951 1743,953C1733,956 1739,958 1755,958C1772,958 1779,956 1773,953ZM1325,941C1319,930 1261,900 1247,900C1236,900 1278,934 1300,943C1323,952 1332,951 1325,941ZM1789,934C1779,921 1779,917 1791,909C1802,902 1802,900 1788,900C1778,900 1770,907 1770,915C1770,925 1759,931 1738,932C1710,933 1711,934 1750,940C1775,944 1797,948 1799,948C1801,949 1797,943 1789,934ZM2019,933C2006,916 2006,916 2026,933C2052,955 2069,954 2099,931L2122,913L2092,891L2061,869L2029,898C1999,925 1996,950 2022,950C2028,950 2027,943 2019,933ZM1860,909C1860,870 1832,820 1811,820C1785,820 1785,825 1810,850C1822,862 1828,875 1824,881C1821,887 1821,902 1824,915C1831,944 1860,939 1860,909ZM972,890C992,854 978,840 948,867C927,885 927,885 941,863C963,827 940,816 905,845L875,869L900,879C914,884 921,889 916,889C907,890 940,919 950,920C953,920 963,907 972,890ZM1754,898C1751,894 1743,893 1735,897C1714,904 1716,909 1739,907C1750,907 1757,902 1754,898ZM2073,868C2089,883 2091,883 2107,867C2121,854 2122,848 2112,838C2102,828 2095,828 2079,838C2061,850 2059,849 2062,829C2065,804 2031,776 2023,798C2020,804 2014,810 2008,810C2002,810 2000,804 2003,796C2009,782 1991,770 1964,770C1947,770 1945,810 1963,810C1969,810 1993,819 2015,828L2054,846L2022,865C2005,876 1990,888 1990,893C1990,898 2005,891 2023,877C2055,853 2058,852 2073,868ZM1280,875C1269,862 1270,861 1284,866C1293,869 1300,867 1300,861C1300,855 1289,851 1275,852C1245,855 1246,854 1266,874C1286,894 1296,895 1280,875ZM1735,881C1738,876 1736,869 1730,865C1725,862 1720,866 1720,874C1720,892 1726,895 1735,881ZM1480,850C1538,830 1515,821 1451,840C1412,851 1350,830 1350,806C1350,798 1346,788 1340,785C1321,773 1330,830 1350,850C1375,875 1409,875 1480,850ZM2024,841C2022,838 2012,844 2002,854C1986,871 1986,872 2007,859C2019,852 2027,844 2024,841ZM790,826C776,812 766,826 774,847C780,862 782,862 790,850C796,841 795,831 790,826ZM890,831C890,827 881,815 871,806C856,792 850,791 844,802C824,834 842,865 871,849C881,844 890,836 890,831ZM1647,854C1644,851 1635,850 1628,853C1620,856 1623,859 1634,859C1645,860 1651,857 1647,854ZM760,834C760,820 757,819 743,831C733,838 723,846 721,847C719,849 726,850 738,850C752,850 760,844 760,834ZM1100,815C1100,810 1095,812 1090,820C1085,828 1080,840 1080,845C1080,851 1085,848 1090,840C1095,832 1100,821 1100,815ZM1151,840C1171,829 1178,790 1160,790C1155,790 1150,795 1150,801C1150,806 1146,808 1140,805C1135,802 1130,802 1129,807C1129,811 1127,823 1125,833C1121,853 1124,854 1151,840ZM1930,820C1934,820 1936,811 1933,800C1925,770 1894,779 1898,810C1901,834 1900,834 1885,816C1868,793 1865,802 1880,831C1890,848 1893,849 1906,835C1915,827 1925,820 1930,820ZM2210,840C2223,831 2223,829 2210,819C2198,811 2199,810 2216,814C2229,818 2243,814 2253,802C2269,785 2268,782 2245,760C2225,741 2218,739 2205,750C2197,757 2193,767 2197,773C2200,778 2199,780 2194,777C2189,774 2174,779 2162,789L2139,806L2160,828C2183,853 2189,854 2210,840ZM1005,820C995,809 982,800 976,800C970,801 976,810 989,820C1019,846 1028,846 1005,820ZM1050,826C1050,824 1038,814 1023,805L995,787L1014,808C1031,828 1050,837 1050,826ZM1780,824C1780,820 1772,811 1763,804C1751,796 1743,772 1739,728L1733,665L1732,736C1730,805 1739,830 1767,830C1774,830 1780,827 1780,824ZM825,790C844,754 836,732 812,753C780,779 765,783 787,759L809,734L788,721C769,709 765,710 748,731C730,755 730,755 765,788C784,805 802,820 805,820C807,820 817,806 825,790ZM1396,754C1393,746 1385,740 1378,741C1368,741 1368,743 1378,747C1384,749 1391,768 1391,788C1393,820 1394,821 1397,797C1400,781 1399,762 1396,754ZM1439,778C1438,737 1438,736 1428,763C1423,778 1421,797 1424,805C1434,832 1440,821 1439,778ZM1607,768C1605,755 1603,763 1603,785C1602,807 1604,817 1607,808C1609,798 1609,780 1607,768ZM927,796C923,786 927,784 941,787C951,790 966,787 974,781C982,774 1020,766 1060,763C1125,758 1131,755 1128,736C1124,708 1090,701 1090,729C1090,741 1086,750 1080,750C1075,750 1070,741 1070,730C1070,719 1063,710 1055,710C1047,710 1040,719 1040,730C1040,741 1036,750 1030,750C1025,750 1020,743 1020,735C1020,726 1011,720 999,720C983,720 979,725 983,740C990,767 973,776 965,750C957,724 940,724 933,750C929,764 922,769 910,765C900,762 889,764 885,770C874,788 888,810 911,810C925,810 930,805 927,796ZM1230,795C1230,779 1203,763 1193,773C1190,777 1190,786 1193,795C1201,815 1230,815 1230,795ZM1467,763C1464,753 1462,761 1462,780C1462,799 1464,807 1467,798C1469,788 1469,772 1467,763ZM1497,773C1494,763 1492,769 1492,785C1492,802 1494,809 1497,803C1499,796 1499,782 1497,773ZM1537,763C1534,753 1532,761 1532,780C1532,799 1534,807 1537,798C1539,788 1539,772 1537,763ZM1571,769C1562,746 1561,747 1561,780C1560,803 1563,811 1570,804C1577,797 1577,785 1571,769ZM1659,768C1658,744 1654,714 1650,700C1644,682 1642,693 1641,743C1640,781 1644,810 1650,810C1656,810 1660,791 1659,768ZM1280,785C1280,777 1273,770 1265,770C1257,770 1250,777 1250,785C1250,793 1257,800 1265,800C1273,800 1280,793 1280,785ZM1320,785C1320,777 1316,770 1310,770C1305,770 1300,777 1300,785C1300,793 1305,800 1310,800C1316,800 1320,793 1320,785ZM1115,780C1118,775 1114,770 1105,770C1096,770 1092,775 1095,780C1098,786 1103,790 1105,790C1107,790 1112,786 1115,780ZM2197,733C2220,715 2248,700 2260,700C2277,700 2281,695 2278,673C2276,652 2270,646 2257,648C2243,651 2240,647 2244,633C2253,606 2151,507 2130,520C2106,535 2094,532 2115,516C2134,502 2134,501 2116,482C2106,470 2093,463 2086,466C2068,473 2070,437 2088,424C2097,417 2101,406 2096,395C2090,380 2087,381 2069,404C2054,423 2039,430 2012,430L1975,431L1999,450C2012,461 2032,470 2044,471C2062,471 2062,472 2048,478C2033,484 2036,491 2070,524C2092,545 2110,559 2110,555C2110,551 2117,553 2125,560C2133,567 2138,576 2135,580C2133,584 2153,612 2180,643L2230,698L2180,735C2153,755 2130,774 2130,776C2130,784 2151,770 2197,733ZM2288,754C2294,743 2299,741 2304,749C2308,755 2321,760 2333,759C2348,759 2350,757 2340,753C2332,750 2317,738 2308,726C2297,713 2290,710 2290,719C2290,730 2287,730 2275,720C2248,698 2226,732 2252,758C2268,774 2277,773 2288,754ZM1180,735C1180,720 1174,710 1166,710C1159,710 1150,721 1148,735C1144,754 1147,760 1161,760C1175,760 1180,753 1180,735ZM1227,744C1224,741 1215,740 1208,743C1200,746 1203,749 1214,749C1225,750 1231,747 1227,744ZM1277,744C1274,741 1265,740 1258,743C1250,746 1253,749 1264,749C1275,750 1281,747 1277,744ZM1343,743C1336,741 1322,741 1313,743C1303,746 1309,748 1325,748C1342,748 1349,746 1343,743ZM1897,744C1894,741 1885,740 1878,743C1870,746 1873,749 1884,749C1895,750 1901,747 1897,744ZM2088,713C2131,678 2135,660 2099,660C2078,660 2074,670 2091,687C2098,694 2090,694 2066,686C2039,678 2030,670 2030,653C2030,637 2024,630 2010,630C1999,630 1990,637 1990,645C1990,654 1982,659 1969,657C1957,656 1945,661 1943,668C1940,675 1946,680 1956,680C1972,680 1972,682 1952,696C1940,704 1926,719 1921,728C1913,743 1919,745 1978,747C2041,748 2048,746 2088,713ZM2185,715C2202,702 2202,698 2189,685C2176,672 2172,672 2152,686C2139,695 2130,712 2130,726C2130,752 2139,751 2185,715ZM692,723C702,714 710,693 710,673C710,615 650,577 619,618C608,632 608,633 620,623C669,579 730,668 684,715C673,726 659,729 643,725C627,721 621,723 625,730C635,745 671,742 692,723ZM2337,722C2316,699 2315,647 2335,630C2354,614 2354,599 2335,606C2327,609 2315,629 2309,651C2299,683 2300,693 2314,715C2323,729 2336,740 2342,740C2348,740 2346,732 2337,722ZM870,726C870,724 858,714 843,705L815,687L834,708C851,728 870,737 870,726ZM881,699C868,689 853,680 846,680C840,680 849,691 865,704C882,717 897,726 900,723C903,721 894,710 881,699ZM1915,710C1916,702 1921,696 1928,698C1940,700 1944,688 1934,678C1928,672 1880,713 1880,724C1880,739 1915,724 1915,710ZM1230,705C1230,697 1223,690 1215,690C1207,690 1200,697 1200,705C1200,713 1207,720 1215,720C1223,720 1230,713 1230,705ZM1290,705C1290,697 1281,690 1270,690C1259,690 1250,697 1250,705C1250,713 1259,720 1270,720C1281,720 1290,713 1290,705ZM1627,646C1623,637 1616,630 1609,630C1603,630 1601,637 1604,646C1607,655 1610,676 1611,693L1612,725L1622,693C1628,675 1630,654 1627,646ZM2367,686C2358,663 2330,666 2330,689C2330,710 2350,722 2364,709C2369,705 2370,694 2367,686ZM816,672C822,659 840,635 856,618C872,601 878,591 870,596C862,600 884,577 919,544L983,484L955,466L928,448L879,496C833,541 831,545 847,562C856,572 858,580 853,580C847,580 839,572 836,563C830,549 822,554 785,590C760,614 737,642 734,653C719,699 794,717 816,672ZM1382,617C1380,612 1373,613 1368,618C1361,625 1361,643 1366,667L1374,705L1380,665C1383,643 1384,621 1382,617ZM1422,627C1416,614 1400,630 1400,650C1400,660 1403,677 1407,687C1413,701 1416,697 1420,670C1424,651 1424,632 1422,627ZM1466,632C1453,620 1449,640 1456,672L1465,705L1468,672C1470,653 1469,636 1466,632ZM1536,642C1525,632 1522,645 1528,675L1535,705L1538,677C1540,661 1539,646 1536,642ZM1571,637C1563,629 1560,637 1561,666C1562,705 1562,705 1572,677C1579,656 1579,645 1571,637ZM1082,680C1098,680 1092,672 1056,645C1017,615 1010,604 1010,575C1010,548 1017,536 1044,515C1063,501 1104,454 1136,412C1168,370 1198,332 1204,328C1210,324 1204,320 1190,320C1164,320 1070,392 1070,412C1070,418 1027,467 974,522C922,577 880,626 882,632C884,638 904,643 926,644C948,645 982,656 1001,667C1020,679 1041,686 1048,684C1056,682 1071,680 1082,680ZM1497,653C1494,643 1492,649 1492,665C1492,682 1494,689 1497,683C1499,676 1499,662 1497,653ZM1661,617C1648,604 1646,632 1658,670C1665,694 1665,693 1668,661C1670,643 1667,623 1661,617ZM945,661C942,655 934,650 928,650C922,650 922,656 930,665C944,682 956,678 945,661ZM1129,644C1123,637 1115,631 1112,632C1108,632 1096,632 1086,631C1070,630 1069,627 1078,618C1099,597 1091,586 1070,605C1054,620 1047,621 1037,611C1028,601 1029,600 1044,606C1058,611 1061,609 1058,594C1056,584 1048,576 1041,578C1032,580 1030,575 1034,565C1037,556 1040,544 1040,539C1040,523 1069,529 1080,548C1087,558 1090,559 1087,551C1085,543 1077,532 1068,526C1043,511 1022,534 1024,578C1025,610 1030,617 1060,632C1079,642 1091,650 1086,650C1080,650 1085,656 1096,664C1120,682 1147,666 1129,644ZM1160,670C1160,665 1156,660 1151,660C1145,660 1138,665 1135,670C1132,676 1136,680 1144,680C1153,680 1160,676 1160,670ZM1343,638C1346,617 1345,600 1339,600C1334,600 1330,619 1330,642C1330,691 1335,689 1343,638ZM1870,665C1877,657 1878,650 1872,650C1867,650 1857,657 1850,665C1843,673 1842,680 1848,680C1853,680 1863,673 1870,665ZM1189,644C1176,630 1152,612 1135,604C1110,591 1112,595 1150,630C1200,675 1227,684 1189,644ZM1276,625C1258,607 1244,562 1254,553C1257,549 1260,556 1260,567C1260,589 1296,640 1311,640C1325,640 1322,614 1305,600C1287,585 1285,549 1302,532C1319,515 1289,516 1270,533C1258,543 1258,542 1269,528C1276,518 1290,510 1299,510C1308,509 1326,500 1340,489C1362,470 1363,467 1347,459C1325,446 1325,423 1348,416C1365,410 1390,367 1390,343C1390,336 1395,331 1402,333C1410,334 1415,316 1417,280C1422,204 1422,205 1468,204L1510,204L1511,269C1511,305 1515,344 1520,355C1530,378 1529,383 1536,256C1541,176 1540,168 1525,174C1514,178 1510,176 1512,168C1515,161 1523,155 1531,155C1542,155 1546,177 1551,245C1555,317 1557,323 1558,277C1559,236 1564,218 1575,214C1604,202 1620,230 1620,290C1620,339 1623,348 1638,346C1651,345 1656,354 1658,383C1661,416 1664,420 1689,420C1724,420 1740,437 1740,475C1740,494 1748,514 1760,525C1773,537 1779,554 1778,574L1777,605L1773,573C1771,556 1762,536 1753,528C1738,517 1737,518 1743,540C1747,554 1750,575 1750,587C1750,604 1755,608 1772,605C1783,602 1803,591 1815,580C1827,569 1842,560 1848,560C1857,560 1858,555 1851,542C1844,529 1844,520 1851,513C1858,506 1854,487 1836,452C1807,395 1792,381 1779,401C1773,410 1770,411 1770,403C1770,397 1760,390 1748,388C1721,384 1702,335 1719,308C1725,298 1730,282 1730,273C1730,258 1732,258 1739,270C1745,278 1747,287 1745,291C1742,294 1752,302 1765,308C1780,315 1790,316 1790,310C1790,304 1786,300 1781,300C1776,300 1773,292 1774,283C1774,274 1766,261 1755,256C1695,224 1670,198 1664,159L1657,120L1518,120C1427,120 1381,123 1385,130C1395,147 1367,209 1342,226C1319,241 1318,246 1324,299C1330,354 1328,360 1279,456C1250,510 1220,559 1212,564C1201,570 1206,579 1234,602C1263,625 1269,637 1264,654C1258,674 1259,674 1275,658C1292,643 1292,640 1276,625ZM2078,653C2084,634 2053,637 2046,656C2042,667 2045,670 2057,668C2066,666 2075,659 2078,653ZM1737,635C1733,627 1726,620 1720,620C1714,620 1714,627 1722,640C1736,662 1746,659 1737,635ZM1882,620C1913,592 1914,591 1890,597C1863,603 1830,628 1830,642C1830,658 1850,650 1882,620ZM1916,623C1909,616 1890,630 1890,642C1890,648 1896,648 1905,640C1914,633 1918,625 1916,623ZM2143,613C2128,593 2115,574 2115,571C2115,568 2112,566 2109,567C2102,569 1982,444 1937,386C1921,366 1913,350 1919,350C1925,350 1930,343 1930,335C1930,327 1926,320 1921,320C1916,320 1914,311 1917,300C1922,283 1917,280 1884,278C1847,277 1846,277 1878,273C1915,268 1923,240 1888,239L1865,239L1888,230C1911,220 1927,194 1916,183C1913,180 1901,185 1890,195C1874,209 1867,211 1858,202C1843,187 1820,186 1820,200C1820,206 1828,210 1838,210C1852,210 1853,212 1840,220C1828,228 1828,230 1845,231C1856,231 1859,234 1853,237C1830,246 1839,288 1870,320C1886,336 1896,350 1891,350C1886,350 1877,343 1870,335C1863,327 1853,320 1848,320C1835,320 1938,470 1976,507C2000,530 2010,548 2010,569C2010,597 2013,600 2043,600C2062,600 2097,611 2121,624C2145,638 2166,649 2168,649C2170,650 2158,633 2143,613ZM1596,614C1608,612 1620,605 1623,598C1626,588 1606,586 1535,588C1458,591 1434,588 1396,571C1353,552 1330,527 1343,513C1346,510 1364,504 1382,500L1415,492L1380,491C1337,490 1320,504 1320,541C1320,603 1463,641 1596,614ZM1944,605C1939,594 1942,592 1954,596C1974,604 1975,586 1955,570C1946,563 1942,550 1945,541C1948,530 1945,531 1935,544C1917,567 1917,575 1930,601C1943,624 1952,627 1944,605ZM833,522C881,474 920,428 920,420C921,410 924,411 932,425C955,468 1002,485 1014,455C1018,445 1011,436 995,430C982,425 964,407 955,390C938,357 920,350 920,378C920,387 880,435 831,484C752,562 717,610 739,610C742,610 785,571 833,522ZM2292,593C2284,572 2127,420 2114,420C2109,420 2148,463 2200,515C2252,567 2296,610 2297,610C2298,610 2296,602 2292,593ZM727,558C729,536 717,535 700,555C693,563 684,570 680,570C676,570 723,521 784,461C845,400 891,348 887,344C879,336 650,557 650,572C650,576 667,579 688,577C716,576 726,570 727,558ZM1145,550C1153,534 1160,514 1160,505C1160,496 1174,469 1191,444C1207,420 1218,395 1214,388C1210,382 1211,380 1217,383C1222,386 1227,383 1227,375C1227,367 1225,360 1223,360C1211,360 1132,485 1137,499C1141,513 1140,513 1131,500C1124,491 1120,490 1120,497C1120,503 1125,512 1130,515C1137,519 1137,527 1130,540C1119,560 1117,580 1125,580C1127,580 1136,567 1145,550ZM1900,569C1900,549 1879,520 1864,520C1851,520 1851,524 1867,550C1884,580 1900,589 1900,569ZM1502,560C1457,555 1433,546 1415,530C1401,517 1390,511 1390,517C1390,531 1421,557 1445,563C1456,565 1488,568 1515,567C1564,567 1563,567 1502,560ZM1473,530C1449,519 1430,505 1430,499C1430,492 1427,489 1424,492C1412,505 1441,539 1467,543C1515,550 1516,549 1473,530ZM810,465C845,429 872,400 869,400C867,400 835,429 800,465C765,501 738,530 741,530C743,530 775,501 810,465ZM1685,452C1690,448 1690,450 1686,457C1680,467 1707,490 1724,490C1735,490 1730,454 1718,442C1688,412 1644,448 1634,508C1630,532 1632,531 1653,497C1666,477 1681,456 1685,452ZM1226,458C1264,383 1252,367 1207,434C1186,466 1171,498 1174,507C1183,528 1197,515 1226,458ZM1530,500C1530,495 1523,490 1514,490C1506,490 1502,495 1505,500C1508,506 1515,510 1521,510C1526,510 1530,506 1530,500ZM1457,468C1454,461 1452,466 1452,480C1452,494 1454,499 1457,493C1459,486 1459,474 1457,468ZM1557,468C1554,461 1552,466 1552,480C1552,494 1554,499 1557,493C1559,486 1559,474 1557,468ZM1120,469C1120,463 1116,462 1110,465C1105,468 1100,476 1100,481C1100,487 1105,488 1110,485C1116,482 1120,474 1120,469ZM1524,465C1520,457 1516,450 1514,450C1512,450 1510,457 1510,465C1510,473 1514,480 1520,480C1525,480 1527,473 1524,465ZM1455,445C1489,434 1491,432 1470,430L1445,428L1470,420C1494,412 1493,412 1463,411C1438,410 1430,414 1430,428C1430,442 1428,443 1420,430C1412,417 1407,418 1388,438L1366,460L1390,459C1404,459 1433,453 1455,445ZM1590,440C1590,435 1580,430 1568,431C1546,431 1546,432 1565,440C1576,445 1586,449 1588,449C1589,450 1590,446 1590,440ZM1530,433C1522,430 1512,422 1508,416C1503,409 1500,412 1500,423C1500,434 1507,440 1523,439C1538,439 1540,437 1530,433ZM1387,388C1384,381 1382,386 1382,400C1382,414 1384,419 1387,413C1389,406 1389,394 1387,388ZM1583,413C1576,411 1564,411 1558,413C1551,416 1556,418 1570,418C1584,418 1589,416 1583,413ZM2010,405C2003,397 1990,390 1981,390C1970,390 1973,395 1990,404C2023,423 2025,423 2010,405ZM1407,363C1404,353 1402,361 1402,380C1402,399 1404,407 1407,398C1409,388 1409,372 1407,363ZM2040,406C2040,404 2032,396 2023,389C2007,376 2006,377 2019,393C2032,409 2040,414 2040,406ZM1200,356C1200,351 1193,353 1185,360C1177,367 1170,380 1170,388C1170,401 1173,400 1185,384C1193,374 1200,361 1200,356ZM1436,373C1426,363 1417,378 1426,391C1432,402 1434,402 1438,391C1440,384 1439,376 1436,373ZM1500,299C1500,242 1496,211 1490,215C1477,223 1477,390 1490,390C1496,390 1500,353 1500,299ZM1647,368C1644,360 1641,363 1641,374C1640,385 1643,391 1646,387C1649,384 1650,375 1647,368ZM1059,366C1075,347 1058,338 1025,346C1011,349 1000,348 1001,344C1005,321 999,311 983,317C971,320 973,316 988,305C1019,282 1004,269 956,277L918,283L970,331C1024,383 1040,389 1059,366ZM1996,363C1993,342 1963,333 1948,348C1933,363 1948,380 1975,380C1991,380 1997,375 1996,363ZM1258,353C1256,343 1260,331 1266,325C1281,312 1295,256 1280,265C1275,268 1270,277 1270,285C1270,305 1251,313 1235,300C1226,293 1220,292 1215,300C1212,305 1216,310 1225,310C1237,310 1239,314 1231,327C1224,340 1226,348 1238,357C1260,373 1262,373 1258,353ZM1450,279C1450,240 1446,210 1440,210C1434,210 1430,242 1430,286C1430,333 1434,359 1440,355C1446,352 1450,318 1450,279ZM1590,290C1590,250 1586,220 1580,220C1574,220 1570,250 1570,290C1570,330 1574,360 1580,360C1586,360 1590,330 1590,290ZM1106,336C1109,328 1120,320 1131,317C1141,314 1150,304 1150,295C1150,285 1145,282 1138,286C1128,292 1128,290 1138,278C1145,270 1148,255 1144,246C1140,236 1143,230 1151,230C1158,230 1160,227 1157,223C1153,220 1154,212 1160,206C1166,198 1163,190 1150,182C1138,175 1129,174 1125,180C1121,186 1122,190 1127,189C1144,186 1151,190 1145,200C1135,217 1110,191 1117,172C1120,163 1120,158 1115,162C1111,166 1099,165 1089,159C1074,151 1070,153 1070,167C1070,177 1078,196 1087,210C1103,232 1103,233 1087,227C1069,220 1063,235 1080,245C1086,249 1088,261 1085,271C1081,282 1084,299 1092,308C1103,323 1103,323 1090,313C1081,306 1069,305 1061,309C1051,315 1052,321 1065,334C1085,354 1099,355 1106,336ZM920,333C919,313 902,300 885,306C868,313 868,314 886,327C906,341 920,344 920,333ZM2015,334C2028,329 2025,323 2000,305C1984,293 1973,280 1976,277C1979,274 1977,263 1971,253C1962,237 1961,237 1960,258C1960,279 1985,340 1994,340C1997,340 2006,337 2015,334ZM2116,326C2125,316 2127,309 2120,305C2107,297 2078,319 2086,331C2093,343 2099,342 2116,326ZM1819,284C1805,266 1795,273 1804,295C1807,304 1815,308 1820,305C1828,300 1827,294 1819,284ZM2058,293C2060,286 2055,280 2047,280C2039,280 2027,273 2020,265C2003,245 1990,246 1990,268C1990,305 2047,325 2058,293ZM898,277C901,262 897,259 883,264C867,269 864,266 864,248C865,230 860,226 842,227C822,230 821,228 831,209C846,180 828,161 804,181C794,189 789,190 793,184C796,178 793,173 785,173C777,173 773,178 777,183C780,188 773,189 759,185C739,179 740,182 768,203C802,229 853,280 844,280C841,280 842,285 845,291C856,307 894,297 898,277ZM2153,293C2157,290 2154,280 2147,272C2137,259 2138,257 2152,263C2164,267 2173,263 2180,250C2186,239 2187,230 2183,230C2179,230 2185,224 2196,216C2211,204 2212,199 2203,189C2193,179 2188,180 2176,190C2167,197 2162,206 2165,210C2168,215 2167,220 2163,222C2149,228 2111,288 2117,294C2125,302 2145,302 2153,293ZM976,259C987,241 965,229 932,236C906,241 902,245 911,256C925,273 966,274 976,259ZM2077,254C2080,245 2068,237 2018,212C2005,206 2009,245 2022,258C2037,273 2072,270 2077,254ZM1300,236C1300,218 1285,200 1269,200C1252,200 1251,203 1260,220C1269,237 1300,249 1300,236ZM1814,229C1811,224 1804,222 1799,225C1794,229 1790,224 1790,216C1790,195 1783,196 1753,220L1728,239L1774,238C1799,238 1817,233 1814,229ZM949,216C962,201 948,184 931,195C926,198 919,196 915,190C912,185 899,180 887,180C869,180 868,182 880,190C892,198 892,200 881,200C870,200 870,203 880,215C896,234 934,234 949,216ZM2090,211C2090,200 2093,190 2098,188C2102,187 2094,174 2081,161C2066,146 2059,144 2063,154C2067,163 2065,170 2060,170C2054,170 2050,165 2050,159C2050,154 2046,152 2040,155C2024,165 2029,208 2048,219C2075,235 2090,232 2090,211ZM1740,211C1740,199 1712,189 1706,199C1703,204 1703,210 1707,214C1716,223 1740,221 1740,211ZM1330,200C1330,195 1326,190 1320,190C1315,190 1310,195 1310,200C1310,206 1315,210 1320,210C1326,210 1330,206 1330,200ZM917,172C907,162 903,151 906,147C909,144 900,125 886,104C866,74 860,70 854,83C844,111 859,150 884,160C897,165 911,174 915,179C918,185 924,190 927,190C930,190 926,182 917,172ZM1687,149C1679,128 1674,123 1672,135C1667,156 1677,180 1689,180C1694,180 1693,167 1687,149ZM1065,122C1056,113 1040,133 1040,153C1041,174 1041,174 1055,150C1062,136 1067,123 1065,122ZM1194,154C1202,134 1202,85 1194,77C1185,68 1149,142 1155,157C1161,175 1187,173 1194,154ZM1845,160C1853,147 1819,69 1808,76C1804,79 1800,96 1800,114C1800,157 1829,186 1845,160ZM2000,164C2000,163 1997,154 1993,144C1987,128 1986,128 1979,146C1972,163 1971,163 1971,143C1970,129 1964,120 1955,120C1937,120 1937,125 1950,150C1956,160 1969,168 1980,167C1991,166 2000,165 2000,164ZM760,142C760,132 749,113 735,100L710,77L710,99C710,130 728,160 745,160C753,160 760,152 760,142ZM1340,145C1365,129 1345,120 1285,120C1236,120 1220,123 1220,134C1220,142 1225,150 1232,152C1248,158 1328,152 1340,145ZM1774,154C1783,151 1790,142 1790,134C1790,124 1777,120 1744,120C1694,120 1686,139 1731,151C1744,155 1756,158 1757,159C1758,160 1765,157 1774,154ZM2134,144C2137,135 2140,114 2140,97L2139,65L2115,95C2101,112 2090,133 2090,143C2090,165 2126,166 2134,144ZM2280,139C2286,128 2290,109 2288,97C2285,76 2283,77 2262,107C2240,138 2240,160 2260,160C2265,160 2274,151 2280,139ZM1005,130C1008,125 1004,120 996,120C987,120 980,125 980,130C980,136 984,140 989,140C995,140 1002,136 1005,130Z" style="fill:white;fill-rule:nonzero;"/>
        <path d="M1091,1514C1074,1500 1060,1484 1060,1478C1060,1472 1069,1479 1081,1494C1092,1508 1116,1524 1133,1529C1157,1536 1159,1538 1143,1539C1131,1540 1108,1528 1091,1514Z" style="fill:white;fill-rule:nonzero;"/>
        <path d="M1051,1444C1051,1433 1054,1430 1057,1438C1060,1445 1059,1454 1056,1457C1053,1461 1050,1455 1051,1444Z" style="fill:white;fill-rule:nonzero;"/>
        <path d="M1251,1516C1253,1514 1266,1507 1280,1501C1304,1490 1304,1490 1286,1504C1270,1517 1237,1528 1251,1516Z" style="fill:white;fill-rule:nonzero;"/>
        <path d="M2083,1348C2082,1337 2084,1332 2088,1336C2092,1341 2099,1348 2103,1351C2108,1354 2105,1360 2098,1363C2089,1366 2084,1360 2083,1348Z" style="fill:white;fill-rule:nonzero;"/>
        <path d="M1938,1413C1944,1411 1956,1411 1963,1413C1969,1416 1964,1418 1950,1418C1936,1418 1931,1416 1938,1413Z" style="fill:white;fill-rule:nonzero;"/>
        <path d="M1179,1333C1184,1323 1191,1307 1194,1297C1203,1268 1245,1279 1245,1310C1245,1331 1240,1335 1218,1335C1202,1334 1190,1338 1190,1342C1190,1346 1185,1350 1180,1350C1173,1350 1173,1344 1179,1333Z" style="fill:white;fill-rule:nonzero;"/>
        <path d="M2028,1243C2034,1241 2046,1241 2053,1243C2059,1246 2054,1248 2040,1248C2026,1248 2021,1246 2028,1243Z" style="fill:white;fill-rule:nonzero;"/>
        <path d="M1428,1223C1435,1220 1444,1221 1447,1224C1451,1227 1445,1230 1434,1229C1423,1229 1420,1226 1428,1223Z" style="fill:white;fill-rule:nonzero;"/>
        <path d="M1374,1204C1364,1196 1361,1191 1368,1195C1383,1203 1384,1178 1368,1162C1352,1146 1369,1147 1398,1164C1420,1176 1420,1178 1406,1193C1394,1204 1393,1210 1403,1213C1409,1216 1410,1219 1404,1219C1399,1220 1385,1213 1374,1204Z" style="fill:white;fill-rule:nonzero;"/>
        <path d="M1361,1054C1361,1043 1364,1040 1367,1048C1370,1055 1369,1064 1366,1067C1363,1071 1360,1065 1361,1054Z" style="fill:white;fill-rule:nonzero;"/>
        <path d="M1351,1014C1351,1003 1354,1000 1357,1008C1360,1015 1359,1024 1356,1027C1353,1031 1350,1025 1351,1014Z" style="fill:white;fill-rule:nonzero;"/>
        <path d="M1060,1126C1060,1106 1083,1100 1161,1100C1223,1100 1230,1102 1230,1120C1230,1138 1223,1140 1145,1140C1079,1140 1060,1137 1060,1126ZM1158,1123C1143,1121 1116,1121 1098,1123C1080,1125 1092,1127 1125,1127C1158,1127 1173,1125 1158,1123Z" style="fill:white;fill-rule:nonzero;"/>
        <path d="M1012,1000C1012,986 1014,981 1017,988C1019,994 1019,1006 1017,1013C1014,1019 1012,1014 1012,1000Z" style="fill:white;fill-rule:nonzero;"/>
        <path d="M1988,673C1995,670 2004,671 2007,674C2011,677 2005,680 1994,679C1983,679 1980,676 1988,673Z" style="fill:white;fill-rule:nonzero;"/>
        <path d="M1776,495C1767,469 1769,463 1781,483C1787,493 1790,504 1787,506C1785,509 1780,504 1776,495Z" style="fill:white;fill-rule:nonzero;"/>
        <path d="M1746,425C1737,399 1739,393 1751,413C1757,423 1760,434 1757,436C1755,439 1750,434 1746,425Z" style="fill:white;fill-rule:nonzero;"/>
        <path d="M2066,178C2069,173 2076,172 2081,175C2094,184 2092,187 2075,187C2067,187 2063,183 2066,178Z" style="fill:white;fill-rule:nonzero;"/>
        <path d="M773,1291C736,1264 682,1203 666,1170C662,1162 669,1168 682,1184C715,1226 750,1261 790,1292C836,1329 824,1328 773,1291Z" style="fill:white;fill-rule:nonzero;"/>
        <path d="M630,1100C630,1095 635,1090 641,1090C646,1090 648,1095 645,1100C642,1106 637,1110 634,1110C632,1110 630,1106 630,1100Z" style="fill:white;fill-rule:nonzero;"/>
        <path d="M616,1049C613,1032 611,990 611,956C613,901 614,904 620,985C628,1080 627,1101 616,1049Z" style="fill:white;fill-rule:nonzero;"/>
        <path d="M620,874C620,866 625,862 630,865C636,869 638,876 635,881C626,895 620,892 620,874Z" style="fill:white;fill-rule:nonzero;"/>
        <path d="M592,665C592,649 594,643 597,653C599,662 599,676 597,683C594,689 592,682 592,665Z" style="fill:white;fill-rule:nonzero;"/>
    </g>
</svg>
